<svg xmlns="http://www.w3.org/2000/svg" width="600" height="300"><path fill="#46505b" d="M431.62 11.25c-14.92 0-28.34 5.35-38.78 15.63-9.85 9.87-14.9 21.98-14.9 35.47.02 15.14 4.87 26.42 15.63 36.5 9.7 8.97 22.86 13.9 37.48 13.9 13.7 0 27.96-5.53 37.47-14.5 9.42-8.8 15.07-22.16 15.06-36.18-.02-14.07-4.03-25.14-12.6-34.3-9.83-10.43-24.18-16.52-39.36-16.52zm61.05 1.3h-1.17c-1.1.07-2.4.2-3.15 1.1-.9 1.14-.62 3-.62 4.32 0 4.05.04 8.1 0 12.17-.03.96-.05 1.92.02 2.88.07.8.17 1.77 1.07 2.02 1.8.5 2.06-2.35 2.23-3.46.55-3.48 1.02-7.13 3.56-9.82 2.08-2.17 4.98-3.1 7.85-3.67 2.28-.44 4.6-.68 6.9-.76 3.55-.14 7.2-.26 10.73-.05 1.35.07 2.78.17 3.85 1.1.8.68 1 1.72 1.06 2.73.15 2.7.1 5.13.1 8.13l-.08 64.23c0 2.5.06 5.08-.73 7.5-.7 2.14-2.35 3.6-4.4 4.5-2.4 1.03-4.94 1.12-7.5 1.44-1 .13-2.58.3-2.88 1.5-.32 1.23.9 2.02 1.94 2.2 1.3.22 2.68 0 3.97-.1 1.3-.08 2.62-.17 3.93-.23 2.24-.1 4.48-.18 6.72-.23 2.92-.06 5.84-.08 8.76-.06 2.63.02 5.26.08 7.9.16 2.28.1 4.57.2 6.86.35 1.52.1 3.1.43 4.6.07 1.1-.27 2.35-1.17 1.7-2.43-.47-.94-1.9-1.07-2.8-1.2-1.33-.2-2.67-.25-4-.46-2.38-.4-4.94-1.22-6.57-3.13-1.27-1.5-1.7-3.52-1.86-5.43-.23-2.38-.2-69.08-.2-69.08 0-2.47-.08-4.98.07-7.44.06-.96.26-2.04.87-2.8.6-.74 1.57-1 2.46-1.14 1.33-.2 2.7-.2 4.04-.2 5.07-.06 10.23-.1 15.23.83 2.63.48 5.32 1.38 7.28 3.26 2.22 2.1 3.16 5.13 3.7 8.05.28 1.52.27 3.35.97 4.73.37.7 1.3 1.36 2.03.72.2-.17.32-.42.4-.67.35-1.06.17-2.35.17-3.45V18.98c0-1.24.16-2.52 0-3.75-.1-.58-.25-1.17-.63-1.64-.6-.75-1.62-.94-2.52-1-1.6-.12-3.17.04-4.76.13-8.82.48-17.73.7-26.52.78-3.75.05-7.5.06-11.24.06-3.66 0-7.3-.02-10.97-.06l-8.86-.15c-5.33-.12-10.66-.35-16-.6-1.15-.06-2.33-.18-3.5-.2zM273.13 13c-7.97-.02-17.2.7-27.5.7-7.07 0-11.14-.3-11.67-.3-.77.02-1.67.1-2.3.6-.6.46-.7 1.33-.17 1.9.65.72 1.77.88 2.7.96 1.14.1 2.3.2 3.44.4 1.05.17 2.05.42 2.97.84 1.67.72 3.07 2.06 3.7 3.9.63 1.85.76 4.04.76 7.24v64.8c0 3.27-.1 5.5-.73 7.37-.6 1.9-2 3.27-3.74 4.06-2.45 1.22-5.16.98-7.74 1.65-1.18.32-2.4 1.45-1.47 2.72.2.3.54.52.9.65.95.36 1.97.23 2.97.17 1.37-.1 2.75-.2 4.13-.28 3.16-.18 7.62-.36 13.42-.36s10.26.18 13.42.36c1.08.06 2.2.16 3.3.22 1.08.07 2.28.24 3.33 0 .7-.14 1.38-.45 1.6-1.17.3-.9-.38-1.78-1.18-2.13-.95-.42-2.08-.4-3.1-.55-2.55-.4-5.4-.82-7.3-2.72-.73-.72-1.3-1.6-1.6-2.6-.62-1.86-.7-4.1-.72-7.36l-.06-28.1c2.04 0 4.34-.2 6.26.65 1.2.54 2.1 1.43 2.96 2.54l31.1 39.03c1 1.24 1.85 1.74 2.8 2.05.96.3 2.13.36 3.6.36 2.1 0 4.4-.15 6.78-.15 8.97 0 20.25-.33 29.22-.4 6.03-.07 12.05 0 18.08.33l3.7.22c1.34.1 3.03.4 4.27-.27.97-.53 1.22-1.77.4-2.57-.14-.14-.3-.26-.5-.36-1-.47-2.2-.47-3.26-.6-1.77-.2-3.43-.4-5.12-1-2.2-.78-4.12-1.98-5-4.26-.78-1.9-.96-4.18-.97-7.46v-64.8c0-3.54.26-5.97 1.15-7.92.87-1.98 2.65-3.16 4.55-3.64 1.8-.44 3.7-.56 5.56-.8 1.1-.15 3.97-.04 4.06-1.67.05-.7-.64-1.17-1.23-1.4-.9-.37-1.9-.38-2.84-.4-.4 0-2.42.16-5.6.3-3.2.15-7.7.3-13.4.3-4.3 0-8.6-.1-12.92-.3-1.42-.06-2.84-.16-4.27-.2-1.37-.06-2.8-.17-4.16.2-.7.2-1.67.58-1.7 1.44-.05 1.32 1.7 1.58 2.68 1.7 1.65.18 3.32.16 4.97.4 1.2.2 2.25.44 3.2.86 1.66.73 3.08 2.06 3.73 3.9.68 1.86.84 4.07.85 7.24v64.8c0 3.2-.16 5.45-.9 7.36-.74 1.93-2.27 3.26-4.12 4.06-1.93.83-4.1 1.17-6.17 1.3-2.28.12-4.66-.02-6.77-.93-3.1-1.34-5.85-3.67-8.03-6.2l-30.82-36.08c4.7-1 9.36-1.97 13.66-4.2 2.6-1.33 5-3.05 7-5.2 3.76-4.13 5.75-9.46 5.76-16.27-.04-9.14-3.04-15.03-8.9-19-5.88-4-15-5.9-27.07-5.9zm-210.42.43c-.43.02-.87.07-1.3.1-1.36.07-2.74.15-4.12.2-3.17.16-7.63.3-13.35.3-5.24 0-10.48-.14-15.72-.42-1.5-.08-3.3-.4-4.76.07-1.36.44-1.57 2.03-.25 2.68.78.4 1.78.44 2.63.54.98.12 1.95.22 2.92.38 1.06.18 2.05.43 2.98.85 1.66.73 3.06 2.06 3.68 3.92.64 1.83.77 4.03.78 7.22v64.8c0 3.28-.1 5.5-.73 7.38-.6 1.9-2 3.25-3.74 4.05-.97.5-2.02.77-3.07.96-1.13.2-2.27.25-3.4.43-.9.13-2.18.27-2.73 1.07-.58.84-.27 1.94.6 2.42 1.15.62 2.62.32 3.87.23 1.18-.08 2.36-.17 3.55-.23 3.16-.2 7.62-.36 13.4-.36 5.8 0 10.27.17 13.43.36 1.2.07 2.4.2 3.6.3 1.4.1 4.5.6 4.78-1.47.06-.42-.08-.86-.33-1.2-.32-.4-.82-.7-1.32-.83-1.53-.45-3.14-.47-4.72-.74-1.04-.2-2.08-.48-3.07-.98-1.73-.78-3.16-2.14-3.8-4.03-.67-1.88-.8-4.13-.8-7.38V62.8h51.44v31.27c0 3.28-.1 5.5-.73 7.38-.6 1.9-2 3.25-3.73 4.05-.98.5-2.02.77-3.1.96-1.56.27-3.18.28-4.73.72-.7.2-1.38.5-1.62 1.27-.26.87.27 1.7 1.08 2.02 1.5.6 3.3.2 4.85.08 5.34-.42 10.7-.53 16.06-.5 5.34.02 10.7.1 16 .56 1.48.13 4.38.66 5.26-.98.3-.56.2-1.3-.23-1.77-.32-.35-.78-.52-1.23-.65-2.62-.75-5.4-.47-7.9-1.72-1.7-.78-3.12-2.14-3.72-4.03-.62-1.88-.72-4.1-.73-7.38v-64.8c0-3.2.14-5.4.78-7.22 1.47-4.26 6.1-4.63 9.93-5.2 1.08-.17 3.05-.18 3.24-1.63.07-.46-.2-.92-.57-1.2-.37-.3-.84-.4-1.3-.48-1.37-.2-2.75.03-4.1.08-1.38.05-2.75.13-4.12.18-3.86.16-7.73.23-11.6.23-5.72 0-10.18-.14-13.35-.3-1.43-.06-2.85-.13-4.27-.22-1.22-.06-3.2-.34-3.85 1.05-.23.5-.17 1.12.27 1.5.3.23.68.35 1.06.45 2.63.7 5.4.53 7.93 1.63 1.65.73 3.05 2.06 3.66 3.92.64 1.83.77 4.03.78 7.22V57.8H51.7V29.27c0-3.53.25-5.97 1.14-7.9.88-2 2.66-3.18 4.56-3.65 2-.5 4.1-.77 6.14-1.1.58-.1 1.2-.25 1.6-.72.8-.96-.15-2.1-1.14-2.36-.42-.1-.86-.13-1.3-.1zm82 .02c-.87 0-2.1.1-2.62.9s.07 1.72.85 2.04c1.67.68 3.68.58 5.44.88 1.06.18 2.06.43 2.98.85 1.66.73 3.06 2.06 3.68 3.92.63 1.83.76 4.03.77 7.22v64.8c0 3.28-.1 5.5-.73 7.38-.6 1.9-2 3.25-3.74 4.05-1.76.8-3.7 1.08-5.6 1.34-1.33.17-4.2.24-3.9 2.3.1.78.85 1.32 1.6 1.5 1.02.22 2.12.05 3.14 0 4.16-.24 8.3-.5 12.48-.57l4.5-.03c32.98 0 50.8.72 53.43.7.92 0 1.86 0 2.77-.14 1.24-.2 2-.84 2.15-2.1.15-1.2.1-2.45.12-3.67.03-1.34.1-2.7.18-4.04.15-2.7.35-5.4.38-8.1 0-1.46.16-3.1-.44-4.46-.27-.6-.78-1-1.46-.94-.68.04-1.25.55-1.56 1.15-.38.73-.5 1.64-.67 2.44-.2.88-.42 1.76-.7 2.62-.37 1.18-.9 2.5-1.72 3.87-1.96 3.34-4.87 5.67-8.77 7-3.9 1.32-8.8 1.8-15.2 1.8-5.23 0-9.1-.27-12.15-1.06-3-.77-5.3-2.27-6.64-4.57-.9-1.52-1.38-3.28-1.67-5.3-.4-2.7-.44-5.9-.44-9.85l.13-23.63c4.45 0 9.05-.08 13.37 1.22.5.14.98.3 1.46.5 3.2 1.25 5.48 3.48 6.85 6.47.6 1.27 1.05 2.62 1.4 4 .27 1.1.4 2.3.98 3.33.58 1.06 1.9 1.3 2.55.2.73-1.2.48-2.65.38-3.95l-.3-4.1c-.3-4.1-.46-8.18-.46-12.27 0-4.24.3-8.46.6-12.7.1-1.28.35-2.82-.07-4.06-.4-1.1-1.66-1.85-2.67-1-.96.83-1.08 2.33-1.28 3.48-.16.98-.35 2.18-.7 3.47-.35 1.23-.8 2.5-1.57 3.77-1.6 2.6-3.83 4.48-6.8 5.6-2.96 1.15-6.62 1.68-11.5 2.02l-2.37.15c0-1.15-.18-34.2.15-36.46.1-.65.25-1.3.55-1.86.8-1.52 2.44-1.77 4-1.92 1.56-.14 3.44-.14 5.85-.14h1.15c6.97 0 14.4.22 18.67 1.23 4.23 1 7.5 2.95 9.56 6.3.73 1.14 1.18 2.34 1.48 3.48.3 1.2.46 2.25.6 3.1.13.8.23 1.64.56 2.37.37.8 1.24 1.3 2.12 1.06.77-.2 1.2-.9 1.3-1.66.16-1.2-.1-2.45-.24-3.64-.18-1.56-.3-3.13-.3-4.7 0-4.13.45-6.8.44-7.78 0-.95-.2-1.62-.5-2.1-.62-.93-1.78-1.23-2.82-1.38-2.88-.42-5.85-.24-8.76-.24-13.5 0-27.24.43-37.66.43-13.54 0-21.36-.6-22.6-.58zm286.35 1.36c10.05 0 18.87 4.24 24.98 12.3 6.12 8.07 9.6 19.8 9.6 34.82 0 15.04-3.7 26.8-9.96 34.9-6.25 8.08-15.1 12.37-24.92 12.36-9.88 0-18.68-4.58-24.82-12.83-6.16-8.25-9.76-20.07-9.76-34.7 0-14.56 3.67-26.22 9.9-34.3 6.23-8.1 15.1-12.55 24.98-12.54zm-163.7 1.6c8.3 0 14.6 1.7 18.86 5.72 4.27 4.03 6.1 10.08 6.1 17.92.02 7.64-1.9 13.45-6.72 17.1-4.77 3.6-11.78 4.93-21.64 4.95l-3.36-.02V21.74c0-1.15.1-1.97.33-2.68.23-.7.7-1.3 1.1-1.58 1.17-.84 2.56-1.05 5.36-1.1z"/><path fill="#46505b" d="M353.46 127.3c-.7 0-1.18.28-1.66.8-.42.48-.83 1.25-1.17 2.1l-32.13 76.6c-1.3 3.1-2.65 6.22-4.4 9.1-1.6 2.6-3.8 4.97-6.72 6.12-1.8.7-3.7 1-5.55 1.48-.62.16-1.3.38-1.6.94-.3.5-.17 1.17.18 1.63.37.46.93.72 1.5.84.87.2 1.84.17 2.73.13 2-.06 3.97-.28 5.95-.4 2.03-.1 4.08-.16 6.12-.15 1.83 0 3.67.1 5.5.25.93.06 1.87.15 2.8.23.92.08 1.88.27 2.8.27 1.1.1 2.24.25 3.3-.1.5-.17 1.08-.5 1.26-1.04.07-.25.07-.52 0-.77-.3-1.3-2-1.5-3.07-1.73-1.16-.25-2.3-.55-3.37-1-1.42-.6-2.7-1.46-3.64-2.8-.93-1.33-1.08-3.08-.96-4.64.1-1.5.37-2.94.77-4.4.3-1.07.66-2.14 1.07-3.18l6.28-15.67h36.06l6.57 17.4c.63 1.64 1.17 3.32 1.56 5.03.4 1.66.83 3.43.38 5.13-.76 2.93-4.52 3.46-7.05 3.83-.13 0-.26.03-.4.04-1.2.2-4.02.38-4.36 1.9-.26 1.17 1.08 1.75 1.98 1.92 1.22.23 2.47.2 3.7.15 1.23-.04 2.45-.08 3.67-.16 4.02-.26 8.02-.63 12.06-.66 4.05-.04 8.1.18 12.14.36.55.03 1.1.08 1.66.08 1.82.08 3.73.34 5.55.1.8-.12 1.77-.5 2.02-1.35.27-.9-.54-1.6-1.3-1.88-1.28-.5-2.66-.57-4-.85-.94-.2-1.92-.46-2.9-.88-1.87-.76-3.42-2.12-4.74-3.98-1.34-1.9-2.5-4.3-3.78-7.4l-31.8-80.2c-.42-.98-.88-1.86-1.32-2.36-.5-.56-.96-.83-1.67-.84zm41.75 1.7h-1.15c-1.1.06-2.42.18-3.16 1.1-.92 1.13-.64 2.98-.64 4.3 0 4.07.05 8.13 0 12.18-.02.96-.04 1.93.03 2.9.06.77.17 1.76 1.06 2 1.8.5 2.05-2.35 2.23-3.45.55-3.5 1-7.14 3.55-9.82 2.07-2.17 4.97-3.1 7.84-3.66 2.27-.43 4.57-.67 6.9-.76 3.54-.13 7.18-.26 10.72-.05 1.35.1 2.78.2 3.86 1.1.8.7 1 1.74 1.05 2.74.17 2.7.1 5.14.12 8.14l-.1 64.23c0 2.5.07 5.1-.72 7.5-.7 2.15-2.33 3.63-4.37 4.5-2.4 1.04-4.96 1.13-7.5 1.45-1 .13-2.6.32-2.9 1.5-.32 1.24.9 2.03 1.94 2.2 1.3.23 2.68 0 3.98-.08 1.3-.1 2.62-.18 3.93-.25 2.24-.1 4.5-.18 6.73-.23 2.9-.07 5.83-.1 8.75-.07 2.63.02 5.26.07 7.9.16 2.28.1 4.57.2 6.86.36 1.5.1 3.1.4 4.6.05 1.1-.26 2.36-1.15 1.7-2.4-.47-.95-1.9-1.1-2.8-1.22-1.33-.2-2.66-.24-3.98-.46-2.4-.4-4.96-1.22-6.58-3.12-1.28-1.5-1.7-3.52-1.87-5.44-.2-2.37-.13-4.77-.13-7.15l-.07-61.9c0-2.48-.06-5 .08-7.46.06-.95.26-2.04.87-2.8.6-.73 1.57-1 2.45-1.14 1.5-.22 2.98-.2 4.48-.2h-.72c2.75 0 5.5-.02 8.25.1 2.44.08 4.88.3 7.27.74 2.63.48 5.32 1.38 7.3 3.27 2.2 2.12 3.13 5.13 3.67 8.06.28 1.5.27 3.34.98 4.7.36.7 1.3 1.38 2.02.74.2-.18.32-.42.4-.68.35-1.06.17-2.35.17-3.45l.02-7.83v-3.92c0-1.24.15-2.52-.02-3.75-.08-.58-.24-1.17-.62-1.63-.6-.75-1.62-.94-2.52-1-1.6-.12-3.17.05-4.76.14l-4.66.23c-1.84.1-3.68.16-5.52.22-2.4.08-4.82.14-7.23.2-3.05.06-6.1.1-9.12.14-3.75.03-7.5.04-11.24.04-3.65 0-7.3 0-10.96-.06-2.96-.03-5.9-.08-8.86-.15-5.34-.13-10.67-.36-16-.6-1.16-.06-2.34-.18-3.5-.2zm97.52 0h-1.17c-1.1.06-2.4.18-3.15 1.1-.9 1.13-.63 2.98-.63 4.3 0 4.07.05 8.13 0 12.18-.02.96-.05 1.93.03 2.9.07.77.17 1.76 1.07 2 1.8.5 2.06-2.35 2.23-3.45.56-3.5 1-7.14 3.56-9.82 2.07-2.17 4.97-3.1 7.84-3.66 2.28-.43 4.58-.67 6.9-.76 3.55-.13 7.2-.26 10.73-.05 1.35.1 2.78.2 3.86 1.1.8.7.98 1.74 1.04 2.74.16 2.7.1 5.14.12 8.14l-.1 64.23c0 2.5.07 5.1-.72 7.5-.7 2.15-2.34 3.63-4.37 4.5-2.4 1.04-4.96 1.13-7.52 1.45-1 .13-2.58.32-2.88 1.5-.32 1.24.9 2.03 1.94 2.2 1.3.23 2.7 0 3.98-.08 1.3-.1 2.62-.18 3.93-.25 2.25-.1 4.5-.18 6.74-.23 2.9-.07 5.83-.1 8.75-.07 2.62.02 5.25.07 7.87.16 2.3.1 4.6.2 6.87.36 1.52.1 3.1.4 4.6.05 1.12-.26 2.36-1.15 1.72-2.4-.5-.95-1.9-1.1-2.82-1.22-1.32-.2-2.66-.24-3.98-.46-2.4-.4-4.95-1.22-6.58-3.12-1.28-1.5-1.7-3.52-1.86-5.44-.22-2.37-.2-69.07-.2-69.07 0-2.48-.07-5 .07-7.46.05-.95.25-2.04.86-2.8.58-.73 1.56-1 2.45-1.14 1.35-.2 2.7-.2 4.05-.2 5.07-.06 10.23-.08 15.23.84 2.63.48 5.3 1.38 7.3 3.27 2.2 2.12 3.13 5.14 3.67 8.06.28 1.5.27 3.34.97 4.7.37.7 1.3 1.38 2.03.74.2-.18.32-.42.4-.68.35-1.06.17-2.35.17-3.45v-11.75c.02-1.24.16-2.52 0-3.75-.1-.58-.25-1.17-.63-1.63-.6-.75-1.63-.94-2.53-1-1.6-.12-3.18.05-4.76.14-8.8.48-17.72.7-26.52.78-3.74.03-7.5.04-11.23.04-3.66 0-7.3 0-10.97-.06-2.95-.03-5.9-.08-8.86-.15-5.33-.13-10.66-.36-16-.6-1.15-.06-2.33-.18-3.5-.2zm-233.34.6c-.2-.02-.42 0-.62.02-.96.16-1.6.76-2.1 1.54-.57.92-1.1 2.53-1.66 4.4l-21.78 73.18-1.67-5.5-.47-1.53c-5.2-16.98-9.33-30.5-12.28-40.6-1.72-5.9-3-10.55-3.86-14.03-.85-3.5-1.3-5.75-1.32-7.26 0-.67.05-1.35.3-2.07.2-.72.68-1.43 1.3-1.95.95-.78 2.12-1.2 3.28-1.53 1.33-.35 2.67-.6 4.03-.78.87-.1 1.75-.17 2.6-.37.72-.17 1.53-.48 1.6-1.33.04-.73-.5-1.4-1.16-1.64-.67-.27-1.83-.4-3.14-.4-5.17 0-11.25.73-17.86.74-9.8 0-15.72-.58-17.4-.58-.67.02-1.5-.02-2.1.3-.43.2-.73.64-.8 1.12-.05.43.08.9.37 1.22.63.72 1.88.9 2.77 1.08 1.14.2 2.3.28 3.42.53 1.7.4 3.26 1.32 4.33 2.9 1.1 1.54 1.87 3.57 2.83 6.58l24.92 77.92c.54 1.62 1.07 3.24 1.76 4.8.36.8.82 1.6 1.5 2.15 1.85 1.53 3.9.33 5.04-1.37.85-1.3 1.65-3.4 2.43-6.03l20.76-68.56 20.48 69.57c.4 1.38.8 2.75 1.37 4.06.46 1.04 1.12 2.3 2.2 2.78 1.1.5 2.47.03 3.34-.8 1.08-1.06 1.66-2.57 2.23-3.94.9-2.23 1.57-4.55 2.28-6.84.5-1.55.97-3.1 1.45-4.64.64-2.05 1.3-4.1 1.93-6.18l2.28-7.33c.84-2.68 1.68-5.37 2.5-8.06.9-2.8 1.76-5.6 2.64-8.4l2.6-8.33 2.44-7.85 2.17-6.96c.6-1.9 1.2-3.8 1.78-5.7.4-1.32.83-2.65 1.24-3.98.2-.63.4-1.25.58-1.87 0-.04.02-.07.03-.1 1.2-3.9 2.16-6.75 3.34-8.94 1.16-2.17 2.74-3.77 4.86-4.57 1.07-.4 2.2-.64 3.28-.96.87-.26 1.83-.52 2.47-1.18.56-.6.65-1.67-.14-2.13-.57-.34-1.3-.33-1.94-.37-1.05-.07-2.1.06-3.13.14-1.9.14-3.78.24-5.68.24-3.4 0-6.8-.07-10.18-.22-2.15-.1-4.3-.27-6.43-.34-1.28-.04-3.82.03-3.83 1.83.02.94.7 1.5 1.57 1.7.76.2 1.56.2 2.33.32 2.4.35 4.97.9 6.74 2.66 1.23 1.3 1.76 3 1.75 4.68 0 5.35-1.43 13.45-4.74 23.98l-13 42.23-21.76-71.15-.7-2.27c-.35-1.14-.7-2.48-1.66-3.3-.47-.4-1.07-.65-1.7-.7zm88.73 16.97l15.77 40.63h-32.62l15.2-36.65z"/><g><path fill="#46505b" d="M126.86 136.4c-1.46 0-3.1.23-4.83.8-2.5.85-4.43 1.1-5.85 1.1-1.07 0-1.84-.15-2.33-.27l-.52-.17-.1-.04-1.22.04-.2.38-.4.7v.68h-.04c-.56 0-1.2-.08-1.67-.18l-.8-.18-1.1.2-.5 1v29.86l.8 1.17c.1.02 2.84 1.1 6.83 1.1 1.48 0 3.15-.15 4.9-.57 1.56-.37 3.05-.53 4.48-.53 3.23 0 6.12.83 8.68 2.03l.03.07 1.2.07c2.63-1.24 5.63-2.12 8.96-2.12 1.37 0 2.8.15 4.3.5 1.67.37 3.3.5 4.77.5 4.03 0 6.94-1.02 7.02-1.05.5-.17.83-.65.83-1.18v-29.86l-.5-1-1.08-.2-.83.18c-.5.1-1.17.2-1.76.2l-.06-.02v-.7l-.4-.7-.17-.34h-.02v-.02l-1.23-.04c-.1.05-1.08.47-2.96.47-1.4 0-3.36-.25-5.84-1.1-1.75-.57-3.37-.8-4.83-.8-3.3 0-5.65 1.14-6.78 1.82-1.12-.68-3.46-1.82-6.76-1.83zm0 2.5c1.88 0 3.4.46 4.45.92l1.07.55v26.03c-1.45-.94-3.64-1.8-6.9-1.77-.9 0-1.85.06-2.9.2-3.06.4-6.32.97-8.16.96-.2 0-.33-.02-.5-.04V140.9c.03-.1.08-.17.08-.26v-.05c.6.1 1.3.2 2.2.2 1.7 0 3.92-.3 6.65-1.22 1.48-.5 2.83-.68 4.02-.68zm13.53 0c1.2 0 2.53.18 4.02.68 2.72.92 4.94 1.2 6.64 1.2.9 0 1.6-.08 2.2-.2v.05c0 .1.07.17.08.27v24.86l-.5.03c-1.85 0-5.1-.57-8.16-.98-1.05-.13-2-.2-2.9-.2-3.27 0-5.46.84-6.9 1.78v-26.02c.8-.5 2.74-1.5 5.5-1.48zm17.18 3.08v27.4c-1.04.28-2.97.68-5.35.68-1.32 0-2.76-.13-4.23-.46-1.67-.4-3.3-.55-4.84-.55-3.04 0-5.8.66-8.26 1.62l-.02-.97c.43-.62 2.06-2.53 6.9-2.57.77 0 1.63.06 2.58.18 3 .4 6.2 1 8.48 1 .87-.02 1.6-.05 2.37-.46l.64-1.1v-24.62h.07c.62 0 1.17-.06 1.68-.13zm-47.78 0c.48.08 1 .15 1.56.15h.05v24.62l.64 1.1c.76.4 1.5.43 2.37.45 2.27 0 5.48-.6 8.5-1 .94-.1 1.8-.17 2.57-.17 3.03 0 4.78.8 5.8 1.5l1 .94.1.1-.03.9c-2.4-.94-5.08-1.57-8.03-1.57-1.6 0-3.3.18-5.05.6-1.54.37-3 .5-4.32.5-1.77 0-3.27-.24-4.32-.48l-.8-.22zm31.32 2.5c-2.54 0-4.66.73-4.73.75-.67.22-1.02.93-.8 1.58.22.66.93 1.02 1.58.8l.3-.1c.6-.17 2.1-.53 3.64-.52.86 0 1.73.1 2.47.4 2.3.84 4.37 1.3 5.85 1.3.63-.02 1.17 0 1.85-.5.53-.44.6-1.22.18-1.76-.4-.48-1.08-.54-1.6-.23l-.02-.04-.4.02c-.96 0-2.9-.37-5-1.16-1.12-.4-2.27-.54-3.34-.54zm-15.14.22c-1.07 0-2.23.13-3.34.54-2.1.8-4.05 1.17-5 1.17l-.38-.02h-.02v.03c-.54-.3-1.2-.24-1.6.24-.45.53-.37 1.32.16 1.76.68.5 1.22.48 1.85.5 1.48 0 3.54-.46 5.85-1.3.74-.3 1.62-.4 2.48-.4 1.03 0 2.03.15 2.77.3l.87.23.3.1c.65.2 1.36-.14 1.58-.8.22-.65-.13-1.36-.78-1.58-.08-.02-2.2-.74-4.74-.75zm15.4 6.57c-2.78 0-5.1.87-5.16.9-.65.23-1 .95-.75 1.6.24.64.96.98 1.6.74l.33-.1c.67-.2 2.3-.63 3.98-.63.77 0 1.55.1 2.25.3 2.3.7 4.3 1.1 5.77 1.1.65-.02 1.2 0 1.9-.5.53-.44.6-1.22.18-1.76-.4-.48-1.08-.54-1.6-.22l-.02-.04-.46.04c-.98 0-2.92-.35-5.05-1-1-.3-2-.4-2.97-.4zm-15.66.23c-.96 0-1.97.1-2.97.4-2.14.66-4.08 1-5.05 1l-.43-.03h-.03l-.02.03c-.52-.3-1.2-.25-1.6.24-.43.53-.35 1.32.2 1.75.68.5 1.23.47 1.88.5 1.45 0 3.47-.4 5.77-1.1.7-.2 1.48-.3 2.25-.3 1.12 0 2.22.18 3.03.37l.95.26.33.1c.65.24 1.37-.1 1.6-.75.24-.64-.1-1.36-.75-1.6-.07-.02-2.38-.87-5.16-.88zm15.94 6.45c-3.03 0-5.53 1-5.62 1.03-.64.26-.95.98-.7 1.63.25.65.98.97 1.62.7l.36-.1c.72-.26 2.5-.76 4.34-.75.68 0 1.36.06 2 .2 2.28.55 4.25.9 5.68.9.67-.02 1.23 0 1.95-.5.53-.44.6-1.23.18-1.76-.4-.5-1.08-.56-1.6-.25l-.02-.04-.12.04-.4.02c-1 0-2.93-.3-5.1-.83-.87-.2-1.74-.28-2.58-.28zm-16.22.22c-.83 0-1.7.08-2.6.3-2.15.5-4.07.82-5.07.8l-.5-.02h-.03l-.02.03c-.52-.32-1.2-.26-1.6.23-.43.55-.35 1.33.2 1.77.7.5 1.27.48 1.95.5 1.42 0 3.4-.35 5.65-.88.66-.16 1.34-.23 2.02-.23 1.23 0 2.43.22 3.3.44l1.04.3.35.13c.65.26 1.38-.06 1.62-.7.26-.65-.05-1.37-.7-1.62-.08-.02-2.58-1.02-5.6-1.03z"/><path fill="#46505b" d="M82.2 250.9c-.7.37-1.48.73-2.5 1.27-2.35 1.24-4.2 1.92-5.86 3.32-1.65 1.4-2.82 3.42-3.78 6.86-.15.55.08 1.12.57 1.4l1.5-.17c3.43-3.25 5.03-3.3 7.1-3.36h1.3c.5 0 1.04 0 1.6-.06.7-.08 1.35-.3 2-.54-.23.3-.43.58-.68.94-1.93 2.77-2.45 5.68-2.44 7.96 0 2.58.64 4.38.67 4.47l1.13.84 1.2-.73c1.4-3.12 2.53-5.16 3.55-6.53 1-1.37 1.88-2.1 3-2.75 1.33-.8 3.2-1.04 4.6-1.03h.06v20.36c-5.9-2-21.4-8.22-36.08-22.26-3.1-2.97-6.2-6.3-9.13-10zm-29.75-23.38c.05 1.12.47 2.16 1.28 2.77.9.66 1.94.84 3.02.84 1.03 0 1.95-.37 2.75-.85.8-.53 1.48-1.08 1.85-2.03.1-.26.1-.48.14-.73h28.15v.68c0 2.95-.18 6.6-.5 9.62-.15 1.52-.34 2.9-.54 3.94-.18 1.03-.47 1.82-.5 1.82-.7 1.04-1.2 1.95-1.65 2.77H46.62c-3.88-5.5-7.43-11.75-10.42-18.85zm-25.4-46.82H39.2c.17.27.3.55.48.76-.14.06-.3.06-.45.14-1.75.85-2.42 2.66-2.37 4.2v.48c.14 2.17 1.6 3.7 3.27 4.67.68.4 1.43.67 2.18.94-.64.65-.9 1.46-1 2.06l-.06.65c.04 1.9 1.3 3.33 2.68 4.43.28.22.6.37.92.56H28.5c-.87-5.9-1.36-12.2-1.46-18.9m-.06-23.23H51c-.7 1-.96 2.17-1 3.44v.13c0 1.2.46 2.62.87 3.9.1.23.16.45.24.66-1.27.4-2.48 1.44-3.1 3.14-.2.46-.28.98-.28 1.54 0 1.7.97 3.74 3.25 5.4-.05.03-.12.03-.18.07-.23.1-.45.26-.66.42h-2.92c-.13-.35-.24-.7-.46-1-.67-.93-1.75-1.54-3.06-1.76l-.76-.05c-1.62-.04-3.32 1-4.02 2.82H26.98zm68.23-8.35c-.15-.3-.3-.63-.5-.9-.45-.54-1-.93-1.62-1.23.13-.42.2-.85.2-1.33.04-2.77-1.8-5.6-5-6.03l-.82-.06c-1.2 0-2.33.43-3.1 1.25-.8.82-1.22 1.9-1.42 3.1v.12c-.14 0-.25-.08-.38-.08-1.27-.02-2.37.6-3 1.42-.63.8-.93 1.73-1.1 2.6l-.08.93c0 .82.2 1.67.53 2.47-.16 0-.34.03-.47.05-.25.03-.55.17-.84.3-.6-.6-1.3-1.1-2.24-1.28l-.6-.06c-.13 0-.23.07-.37.1.18-.67.3-1.28.3-1.85.03-1.22-.47-2.26-1.17-2.88-.7-.64-1.5-.92-2.22-1h-.26c-1.06 0-2.2.47-3.28 1.4-.05.05-.08.13-.13.18-.5-.24-1.08-.4-1.7-.4l-.37.02c-.52.04-.98.27-1.42.53-.14-.82-.4-1.6-.9-2.22-.7-.9-1.86-1.45-3.1-1.43-1.54-.02-2.87.78-3.65 1.92-.8 1.14-1.17 2.57-1.17 4.08 0 .5.15.92.25 1.37-.2-.07-.4-.12-.7-.13-1.15-.02-2.2.47-2.88 1.26-.4.46-.63 1-.8 1.58H27v-18.96H95.2zm72.3 27.1H99.28v-42.24h68.22zm-97.87 45.65c.05-.3.1-.48.16-.67.3.24.62.6.95.77.7.37 1.46.52 2.17.5h.27c1.4-.02 2.6-.72 3.25-1.66 1-1.38 1.26-3 1.74-4.47.45-1.48 1-2.7 2.1-3.42.82-.6 2.3-.84 3.8-1 1.55 1.5 2.58 2.83 3.24 4 1.46 2.55 1.4 4.57 1.94 7.1H69.46c.06-.4.1-.8.17-1.13m-14.06-7.56c.15-.24.23-.46.36-.7.04.04.06.1.1.1.14.13.32.2.48.3l-1.1.53c.04-.07.1-.14.17-.22m-.27.28zm9.9-5.48zm-8.44-22.05v.03zm-.2.2l.05.03zm-4.2-19.34l.3.04 1.2-.46.17-1.25s-.4-.95-.8-2.1c-.38-1.15-.76-2.58-.74-3.1V161c.02-1.07.26-1.8.56-2.16.3-.36.67-.6 1.68-.62h.03l1 .2.55.68c.07.12.14.27.2.42.25.66.44 1.3.56 1.93.12.6.16 1.15.2 1.7l.03.48v1.03l.42.6.32.54h.04l.02.02.85-.2.5-.1.07-.06c.23-.23.5-.45.8-.6.25-.15.5-.22.74-.24.05 0 .1-.03.14-.03l.95.22c.03 0 .04.02.07.04l.74.8.03.08c.15.42.2.98.2 1.52l.02.04-.04.9c-.14.96-.47 1.94-1.8 3.7l.14 1.67 1.68.03.2-.17 1.77-.88h.04c.47.1.74.2.97.36l.17.12c.08.08.14.23.22.34-.14.2-.26.3-.38.53-.24.45-.36 1.07-.44 1.72-.03.18-.12.28-.13.48v.26c0 .78.2 1.44.44 2.05l.06.15c.04.1.07.23.12.33l-.4.1c-.07.02-.14 0-.22.04-.57.2-1.2.6-1.58 1.28-.03.05-.02.1-.04.16-.23.46-.34.95-.37 1.44 0 .1-.06.17-.06.25 0 .1.07.18.08.27l.06.6c.07.34.23.63.36.94.07.16.1.34.18.48.34.6.8 1.14 1.32 1.65l.1.1c.07.08.17.12.24.18.52.44 1.06.83 1.58 1.14l-.3.18c-.28.15-.57.32-.86.54-.03.03-.06.04-.1.06l-.03.04c-.17.14-.38.25-.53.42-.24.26-.36.55-.5.85v.03c-.24.53-.4 1.07-.43 1.6V191.65c.02.62.2 1.2.47 1.76.04.1.03.25.08.34l-.3-.08-.55-.07-.23-.06h-.13c-.36 0-.72.1-1.05.23-.13.05-.24.12-.35.2-.1.05-.22.1-.3.17l-.12.17c0 .02-.03.03-.04.05-.04 0-.06-.02-.1-.03l-.43-.13c-.55-.2-1.17-.48-1.8-.8l-.36-.22c-.42-.25-.82-.5-1.18-.76-.34-.26-.64-.52-.9-.78-.15-.14-.3-.27-.4-.4-.2-.23-.36-.44-.48-.66-.18-.32-.33-.65-.32-.92l1-.15.08-.02.1-.02c.26-.05.6-.2.88-.46l.16-.07c.42-.4.63-1.04.62-1.58v-.14c0-.18-.07-.33-.1-.5v-.23l-.02-.2c-.02-.14-.08-.25-.1-.38-.08-.28-.17-.55-.27-.82-.1-.23-.2-.45-.34-.67-.08-.13-.13-.3-.22-.43l-.23-.28-.1-.1c-.05-.06-.07-.14-.14-.2-.1-.1-.26-.17-.38-.26l-.45-.4-.22-.15c-.07-.05-.17-.04-.25-.07-.35-.17-.8-.24-1.24-.3-.23-.04-.4-.16-.63-.16h-.14H54.14l-.07.02h-.1c-.74-.1-1.13-.32-1.4-.62l-.25-.77-.33-.83-.07-.2-.03-.05-.07-.17c-.03-.05-.1-.08-.14-.13l-.03-.05-.4-.37c.1-.43.25-.65.7-.93.58-.3 1.56-.5 2.53-.66.52-.1.93-.5 1-1.04.08-.53-.2-1.06-.67-1.3l-1.95-.97c-2.15-1.4-2.6-2.83-2.62-3.72l.1-.64c.6-1.46 1.32-1.7 2.03-1.73m14-19.7c.06-.14.1-.26.18-.38-.07.12-.12.24-.18.38M99.74 223l-.46-1.37v-10.65h.4l.68.23.2.3v.05c0 .24-.33 1.53-.33 2.92 0 1.1.2 2.4 1 3.53 1.27 1.73 3.22 2.28 4.8 2.27.68 0 1.3-.1 1.87-.25l1.27-.18c.63 0 1.08.16 1.33.34h1.48l.44-1.4-.07-.5c0-.52.2-1.26.72-2.03.64-.96 1.15-2.28 1.15-3.77 0-1.05-.28-2.2-1-3.2-.96-1.3-2.34-1.87-3.5-2.18-1.13-.32-2.23-.4-2.4-.45l-.2-.13-.1-.5.03-.3.32-.5.32-.23.13.03c.13.05.84.47 1.67.84.85.37 1.92.74 3.12.74l1.52-.2c1.44-.5 2.45-1.5 3.06-2.56.62-1.07.9-2.2.92-3.18.05-1.3.55-2.16.97-2.44l.45-1.4c-.17-.52-.66-.87-1.2-.87h-.03c-.48.02-1.4-.38-2.17-1.4-.98-1.22-2.7-2.5-4.94-2.54-.53 0-1.08.1-1.63.27-1.52.5-2.48 1.65-3.14 2.65-.65.98-1.07 2-1.18 2.17l-.26.14-.56-.12-.16-.07-.47-.78.1-.18c.1-.16.95-.9 1.7-1.8.73-.94 1.5-2.2 1.52-3.82 0-1.5-.64-2.78-1.46-3.7-.82-.9-1.8-1.52-2.73-1.87-.65-.23-1.3-.54-1.74-.86l-.7-.72c-.17-.52-.64-.88-1.2-.9h-.02v-1.7h68.17c-.26 16.54-3.04 30.5-7.4 42.3zM99 183.78l.28-.1zm3.67 15.2l.1.08.03.03.08.06c.1.04.9.58 2.1.6.8.04 1.88-.4 2.43-1.4.3-.5.6-1.26 1.12-2.05.5-.8 1.16-1.44 1.82-1.65l.86-.14c1.15-.02 2.4.84 2.98 1.6.62.78 1.33 1.38 2.1 1.8-.37.78-.6 1.67-.66 2.66 0 .58-.2 1.38-.6 2.03-.38.65-.9 1.16-1.65 1.4l-.75.12c-.65 0-1.43-.24-2.12-.54-.7-.3-1.2-.63-1.68-.84l-1.13-.24c-1.2 0-1.94.72-2.36 1.24-.43.54-.62 1.02-.65 1.08l-.07.2c-.02.06-.1.44-.1 1 0 .45.05 1.04.37 1.66.3.63 1 1.23 1.86 1.4.6.13 1.4.18 2.3.43.9.25 1.72.66 2.13 1.24.37.54.52 1.12.52 1.74 0 .88-.34 1.83-.73 2.4-.56.82-.86 1.7-1 2.56-.28-.03-.54-.1-.83-.1-.63 0-1.28.1-1.94.28l-1.2.15c-1.07 0-2.13-.35-2.77-1.24-.36-.5-.53-1.25-.53-2.06 0-1.07.25-2.02.33-2.68v-.3c.03-1.42-1.02-2.3-1.74-2.6-.75-.35-1.37-.4-1.45-.4h-.1l-.5-.02v-1.84c.17 0 .3.07.45.07 1.98 0 3.6-1.6 3.6-3.57 0-1.84-1.4-3.36-3.18-3.56.88.5 1.48 1.45 1.48 2.54 0 1.4-1 2.53-2.34 2.8v-19.23c.16.14.3.3.46.4.7.5 1.5.9 2.32 1.2.54.2 1.24.62 1.74 1.18.5.57.82 1.23.82 2.03 0 .7-.4 1.53-1 2.25-.58.74-1.2 1.26-1.6 1.7-.48.54-.73 1.23-.72 1.84.1 1.77 1.32 2.6 1.37 2.7m-17.05-37l-.47.3.47-.3m-1.8 31.47c.12-.23.22-.48.35-.68-.13.2-.23.45-.34.68m-5.54-7.6c.47-.47.98-.9 1.55-1.24-.57.33-1.08.77-1.56 1.24m2.2-.7v0m-1.96-8.92c-.04-.03-.08-.06-.1-.1.02.04.06.07.1.1m4.87 29c-.8-.16-1.55-.37-2.24-.63-.83-.33-1.46-.65-1.9-.96 0-.02-.03-.04-.06-.06-.18-.13-.32-.27-.45-.4l-.58-1.14-.32-.58-.14-.34-.05-.02-.03-.04-.94-.12-.18-.03c-.46.18-1.1.28-1.73.3l-.18.02c-.57 0-1.1-.1-1.5-.25l-.45-.4-.13-.14-.2-.44v-.03l.6-1.24.48-.5.16-.12.03-.02.04-.1c.26-.2.46-.48.5-.84 0-.07-.06-.13-.07-.2l.03-.06-.06-.06c-.08-.44-.33-.82-.77-.96-1.12-.37-2.06-.75-2.86-1.13-.08-.05-.16-.1-.25-.13-.72-.37-1.33-.72-1.76-1.07-.9-.75-1.15-1.3-1.18-1.87l-.02-.1v-.06c.02-.63.23-.95.6-1.28l1.25-.6.1-.04 1.12-.36 1-.32c.5-.16.86-.64.86-1.2 0-.54-.35-1.02-.87-1.18l-.32-.12c-.46-.16-.87-.35-1.27-.55-.42-.2-.84-.45-1.3-.73-.26-.2-.54-.36-.76-.55-.2-.17-.35-.34-.5-.5-.23-.23-.4-.45-.55-.66-.16-.24-.28-.48-.35-.7-.03-.1-.07-.22-.08-.3l-.04-.36.2-.57.9-.2.22.02.82.08.5-.2.8-.33v-.62l-.02-.8-.1-.14c-.44-.6-.74-1.13-.94-1.6-.13-.3-.18-.6-.23-.9-.04-.18-.12-.4-.12-.55v-.02c.05-.58.16-.93.3-1.2.15-.3.34-.54.58-.76H69c.03-.04.08-.06.1-.1.23-.22.62-.42 1.1-.53.14-.04.26-.1.43-.1l.26.02c.4.02.78.1 1.02.2l.07.04.42.44.06.2c.06.2.1.47.13.84.02.07.03.13.03.22 0 .46-.07 1.06-.2 1.76l-.03.1v.05c-.1.53.1 1.08.6 1.35l.48-.07.9-.03.1-.12h.03l.3-.3.1-.1.5-.53.47-.25.72.3.12.16c.12.13.24.3.37.53l.1.2c.23.47.4 1 .52 1.55.1.43.18.8.22 1.15l.06.4c.05.56.1 1.13.1 1.66 0 .37-.03.68-.05 1 0 .2-.02.4-.03.58 0 .05 0 .12-.02.18-.06.47-.13.97-.2 1.62-.03.17.04.3.07.46.02.08 0 .18.05.25.08.16.23.28.4.4.04.04.06.1.13.14.02 0 .02.02.03.02l1.43-.24h.02c.4-.4.72-.66 1-.85.07-.03.1-.08.17-.1.27-.17.5-.26.67-.24l.17.02c.07 0 .12.03.18.05.17.05.32.1.4.15l.1.06c.05.05.1.1.12.14l.06.1c.06.1.1.33.13.66 0 .08.02.13.03.23 0 .6-.12 1.38-.22 2.24-.1.55-.2 1.08-.2 1.66 0 .55.1 1.12.27 1.68.1.3.32.6.47.9.15.28.22.55.42.8l.02.02.05.08.7.24.4.17h.05l.8-.66.13-.1v-.02l.07-.13c.17-.37.32-.63.47-.83.32-.4.6-.5.8-.52.33-.02 1.03.34 1.64 1.3.6.97 1.05 2.53 1.1 4.6v.88l-.03 1.3v.5l-.06.68c-.1 1.1-.25 1.9-.42 2.56-.7.18-1.6.3-2.63.3-.32 0-.66-.06-.98-.08-.8-.04-1.6-.1-2.4-.27m-4.63 1.06c-.6-.32-1.07-.65-1.47-1 .4.35.87.68 1.46 1m-11.13-11.7c-.3-.13-.6-.26-.9-.37.3.1.6.23.9.36m.63-6.6c-.27-.13-.53-.25-.78-.4.25.15.5.27.78.4m-1.25-17.4c.37.17.7.4 1 .67-.3-.27-.63-.5-1-.68m.48 2.25zm25.88 24.03c-.1.23-.2.47-.3.66v.03l-.4.63-.2.25H92.38c-.1-1.93-.6-3.66-1.4-4.96v-.02c-.9-1.46-2.2-2.46-3.74-2.48h-.03c-.78 0-1.5.3-2.1.8 0-.52.07-1.1.16-1.7.12-.75.2-1.43.2-2v-.1-.08c0-.4-.06-.85-.18-1.28l-.13-.32c-.1-.22-.14-.45-.28-.68l-.17-.15c-.04-.06-.05-.14-.1-.2-.13-.14-.3-.2-.43-.3-.15-.13-.3-.26-.46-.35-.3-.17-.63-.3-.98-.4-.06-.02-.1-.06-.17-.06h-.05l-.1-.05-.65-.07c-.42 0-.8.2-1.2.35v-.02c.02-.3.05-.54.05-.86 0-.54-.03-1.14-.1-1.85 0-.04 0-.13-.02-.18l-.1-.76c-.06-.35-.14-.7-.22-1.07-.06-.24-.08-.5-.15-.74-.07-.3-.2-.54-.3-.8 0-.04-.02-.1-.04-.15l-.04-.05c-.1-.2-.18-.4-.3-.6l.4.03.57.06c.6.1 1.18-.23 1.4-.8.2-.55-.03-1.17-.52-1.48h-.02v-.03l-.1-.05c-.44-.3-.9-.66-1.34-1.04-.38-.33-.74-.68-1.1-1.08l-.3-.37c-.35-.43-.67-.9-.97-1.42l-.36-.6c-.37-.74-.64-1.54-.75-2.4l-.02-.13-.03-.5c0-.2.02-.32.04-.43v-.07l.1-.22.2-.15.48-.13c.27 0 .65.08 1.07.2l.3.07c.45.15.94.34 1.47.6h.03l.07.05c.6.27 1.32 0 1.62-.6.3-.6.06-1.32-.53-1.64l-.07-.04v-.02h-.03c-1.26-.6-2.1-1.2-2.6-1.75-.5-.56-.7-1.05-.68-1.4 0-.4.28-.9 1.06-1.45.2-.12.43-.23.7-.34.26-.1.62-.14.98-.17h.08c.58-.02 1.2.13 1.76.37.18.07.35.14.54.25.23.16.43.34.57.57 0 .03.03.05.04.07.16.3.26.65.27 1.18v.05c0 .4-.06.88-.23 1.47-.02.08.02.16 0 .25 0 .18-.03.37.04.55.03.04.08.06.1.1.1.2.22.4.4.5h.04v.02l1.13-.17.4-.05c.38-.4.66-.6.93-.8.16-.1.26-.17.38-.22.15-.06.3-.13.37-.13l.52.5c.06.1.12.2.17.36l.08.23c.07.23.13.5.18.82.02.18.04.35.04.53l.02.32-.04.5c-.02.32-.08.63-.14.95-.1.48-.2.96-.37 1.4 0 .04-.02.08-.04.13-.2.48-.4.94-.62 1.3l-.6.95-.18.24-.04.06v.83l-.03.76h.03c.4.45 1.02.6 1.54.3l.05-.02c.45-.26.92-.44 1.4-.58l.13-.05c.5-.14.98-.2 1.4-.2h.02l1.07.2c.03 0 .04.02.07.03l.5.54c.07.12.13.2.2.37l.46 2.08c.04.32.07.5.1.62l.02.63c0 .56-.08 1.17-.56 2.36-.45 1.08-.92 1.96-1 3.3-.02.64.46 1.18 1.1 1.28l-.02.02c.05.04 1.43.27 2.5 3.62v2.48c-.25 1.17-.57 2.43-.97 3.68-.3.93-.58 1.68-.82 2.25m18.77 72.9l-12.9-8.15v-32.05l6.1 18.2c.16.5.64.85 1.17.85h13.1l-10.57 7.7-.47 1.37zm-31.84-115.9l.9.05c.57.12 1.16-.2 1.38-.77.23-.55.02-1.2-.5-1.5-.64-.35-1.26-1.67-1.23-2.67l.05-.46c.1-.62.34-1.2.6-1.52.28-.3.48-.46 1.04-.48l.3.1.58.9.03.04c.4.56 1.18.67 1.73.27s.68-1.16.3-1.72l-.18-.84.1-.84c.13-.9.42-1.47.73-1.8.3-.3.65-.46 1.3-.48l.5.04c1.8.26 2.8 1.74 2.83 3.56l-.14.75-.42.3c-.5.27-.78.86-.65 1.42.13.56.64.96 1.22.96h1.02l.92.7.54 1.38-.67 1.03c-.44.36-1.13.6-1.94.66l-.52.02H90c-.67 0-1.23.52-1.26 1.2-.03.67.48 1.25 1.16 1.3H90l.42.02c.08 0 .15-.03.23-.04l1.18-.06.74.14c.62.2.95.5 1.23 1s.44 1.18.47 1.9l.03 1.22c0 .97-.1 2.04-.38 2.83-.3.8-.66 1.2-1.36 1.43-.56.18-.93.7-.88 1.3.04.6.5 1.06 1.08 1.14.93.15 1.14.33 1.36.64.23.34.43 1.13.5 2.4.07.8.1 1.76.1 2.7v1.1l-.3-.46c-.1-.14-.12-.3-.23-.44-.03-.02-.07-.02-.1-.05-.35-.38-.76-.7-1.18-.87l-.18-.06c-.14-.06-.27-.08-.4-.12-.6-.18-1.2-.27-1.72-.28l-.74.06.02-.05.18-.42c.17-.48.3-1.03.4-1.6.04-.16.1-.3.13-.46.02 0 0-.03.02-.04v-.03c.06-.33.07-.66.1-1 0-.13.05-.24.05-.37v-.13-.06l-.02-.24-.05-.73c0-.07-.03-.14-.05-.2-.05-.36-.12-.7-.2-1l-.2-.6c-.07-.17-.1-.35-.18-.5-.07-.16-.18-.3-.28-.46l-.05-.08-.02-.04c-.23-.33-.55-.63-.9-.87l-.28-.16c-.38-.2-.78-.34-1.23-.34h-.04l-.05-.02c-.42.02-.74.15-1.06.28-.02-.2-.06-.4-.1-.6 0-.03-.02-.06-.03-.08-.16-.67-.5-1.34-1.06-1.93l-.2-.2c-.13-.1-.23-.24-.4-.35l-.14-.07-.14-.1c-.24-.16-.5-.2-.73-.3-.94-.45-1.87-.7-2.68-.7-.4 0-.77.05-1.1.1v-.05c0-.75-.15-1.68-.4-2.64-.08-.32-.18-.62-.3-.93.32-.03.88-.1 1.43-.08m-9.24-2.02l.1 1.42 1.4.38c.73-.3 1.73-.72 2.17-.7l.12.02c.57.1 1.06.54 1.48 1.35.18.37.3.74.4 1.1.17.7.3 1.43.3 2.18 0 .4-.05.78-.1 1.15-.02 0-.04.02-.05.04-.16.12-.3.25-.45.4-.2.18-.38.4-.53.6-.1.12-.15.24-.22.36-.12.22-.24.43-.33.66-.1.34-.18.67-.2 1.04l-.02.1v.08c0 .74.3 1.44.7 2.1l-.1.07c-.06.02-.1.06-.15.08-.32.12-.62.3-.88.55-.04.03-.1.04-.13.07-.07.08-.1.2-.15.26-.12.16-.27.28-.36.44-.07.14-.1.3-.15.43l-.05.13c-.16.47-.25.94-.25 1.4 0 .17.06.32.08.5l.02.32c.03.18.1.34.13.5.08.5.18.95.32 1.38.1.27.18.5.28.72.08.18.16.44.23.6.05.07.1.12.14.2.26.53.55 1.02.86 1.47l.2.3c.44.6.9 1.1 1.35 1.57-.05 0-.1.03-.15.05-.3-.12-.65-.18-1-.2-.07 0-.14-.07-.2-.07h-.06l-.22.02c-.2 0-.33.1-.5.16-.04-.56-.12-1.14-.37-1.73-.2-.5-.63-.98-1.15-1.37-.07-.05-.1-.15-.17-.2-.1-.07-.2-.07-.3-.12-.1-.03-.16-.1-.25-.15-.13-.05-.23-.03-.36-.07-.56-.18-1.1-.3-1.6-.32-.08 0-.15-.04-.2-.04l-.1.02H70.4c-.35 0-.7.13-1.05.24-.1-.17-.14-.37-.3-.5l-.14-.07c-.84-.44-2.43-2-3.18-2.8l.02-.24-.02-.34v-.04-.06l-.07-.96-.14-.73-.1-.54c0-.04-.04-.07-.05-.1 0-.04 0-.07-.03-.12-.08-.2-.26-.42-.4-.64-.1-.2-.2-.4-.34-.57-.12-.14-.3-.23-.43-.35l.04-.1c.05-.08.12-.16.2-.22.02-.02.05-.04.1-.05.2-.12.53-.23 1.03-.3h.07l.67-.06c.5-.05 1.08-.1 1.7-.18l.24-.02h.08l.72-.67.3-.26v-.02l-.5-1.32-.6-.48c-.6-.46-1.47-1.24-2.16-2.1-.08-.1-.12-.2-.2-.3-.53-.74-.9-1.5-.9-2.04l.02-.17c.03-.22.07-.33.1-.47l.08-.3.08-.13.06-.1.27-.07c.3 0 .9.2 1.43.43.03 0 .05 0 .08.02l.06.03.84-.16.5-.08v-.02l.32-1.34v-.03c-.3-.8-.42-1.5-.43-2.06v-.12c0-.53.12-.96.28-1.34l.13-.27c.2-.35.4-.65.67-.9.58-.55 1.4-.8 1.6-.77h.02l.78.35c.2.2.36.44.38 1.05 0 .62-.24 1.67-1.1 3.15m-17.56 2.92l-.04-.5c0-.54.17-.96.4-1.22l.93-.4c.1.04.66.3 1.15.57.58.32 1.05.62 1.35.77l1.48-.26.17-1.5c-.73-1.25-1.14-2.26-1.14-3.33 0-1.1.28-2.05.7-2.63.43-.6.88-.85 1.62-.87.58 0 .88.18 1.16.5.28.33.5.93.5 1.8l-.1 1 .6 1.27 1.4-.07c.77-.58 1.3-.97 1.62-1.17l.45-.22h.17l.25.1c-.2.53-.36 1.14-.36 1.84v.2c0 .06.03.13.04.2 0 .2.03.4.05.62-.13 0-.24-.06-.37-.06h-.02c-.33 0-.7.05-1.07.2-.14.05-.24.16-.38.24-.2.1-.42.2-.6.38 0 0 0 .02-.02.03 0 .03-.03.03-.05.04-.24.27-.4.6-.56.92 0 .05-.05.1-.07.13-.03.06-.04.14-.06.22-.08.24-.14.48-.18.64l-.05.33-.02.14-.02.2-.04.3c.04 1.27.57 2.33 1.23 3.27.42.62.9 1.18 1.35 1.66l.06.06c-.07 0-.14.03-.2.04-.2.02-.36.03-.55.08l-.27.1c-.3.1-.6.22-.9.4l-.1.05c-.03 0-.05.06-.1.1-.16.1-.34.2-.5.36-.13.14-.22.34-.33.5l-.17.26c-.04.07-.1.12-.13.2-.2-.03-.37-.14-.57-.14h-.03-.02c-.53 0-1 .12-1.42.27-.03-.32-.1-.66-.15-1 0-.1-.02-.18-.04-.28-.04-.2-.05-.37-.1-.56-.18-.58-.37-1.22-.6-1.85-.06-.12-.07-.23-.12-.35v-.03c-.07-.15-.18-.26-.25-.4-.07-.12-.1-.24-.18-.36-.03-.03-.1-.06-.12-.1-.3-.43-.68-.8-1.17-1.1-.03 0-.06-.05-.1-.07-.67-.36-1.34-.46-1.95-.5h-.26c-.22 0-.4.04-.6.06-.3-.35-.5-.63-.58-1.08m-9.8 39.68l.37-.8c.23-.23.8-.57 2-.86.57-.14.97-.68.95-1.27-.03-.6-.47-1.1-1.06-1.2-1.6-.22-3.34-.73-4.6-1.48-1.3-.78-1.97-1.63-2.04-2.67v-.32c.04-1.07.24-1.55 1-1.97.17-.12 1-.24 2.45-.36.54-.05.98-.43 1.1-.95l-.53-1.35c-.8-.5-1.43-.9-1.8-1.3-.35-.43-.55-.78-.56-1.64l.05-.7c.2-1.2 1-1.64 1.9-1.68l.3.03c.88.16 1.24.44 1.48.76s.4.83.4 1.6c0 .44-.06.95-.16 1.5-.1.56.2 1.12.7 1.35l1.48-.3 1.32-.53.37.05.4.13.45.44c.17.42.34.95.48 1.43l.2 1.37c0 .74-.16 1.37-.78 2.04l-.07 1.66c.4.5 1.1.6 1.64.26l.22-.2c.03-.02.04-.05.06-.08l.23-.22c.35-.48.78-1.16 1.3-1.74.5-.58 1-.85 1.15-.83l.08-.02c.34 0 .6.07.8.15.04 0 .1 0 .12.02.07.02.1.07.16.1l.52.45c.28.34.52.8.65 1.4v.38c-.12 0-.2.05-.42.08l-.53.08-.3.17c-.1.05-.18.04-.3.1-.07.03-.1.12-.17.16l-.45.25c-.08.1-.05.23-.12.33-.33.45-.57.96-.54 1.47 0 .25.13.47.2.7.06.3.1.6.23.87.06.15.14.3.22.45.5.94 1.24 1.75 2.06 2.4.15.12.32.2.47.3.44.32.9.6 1.36.88.18.1.36.23.57.34.2.1.37.24.58.34.52.24.97.4 1.4.54l.07.03c.04 0 .1.03.14.05l.36.13.03.38c.02.2.07.4.1.62-.4-.15-.85-.3-1.3-.4-.15-.04-.3-.03-.46-.06-1.03-.22-2.07-.4-3-.4h-.1l-.23-.02c-.18 0-.36.07-.54.1-.2.02-.4.04-.58.1-.23.04-.46.14-.68.25-.1.04-.23.04-.34.12-.06.03-.08.1-.13.12-.48.35-.9.73-1.16 1.16-.26.44-.37.9-.4 1.35 0 .05-.04.1-.03.16l.02.08c-1.08-.6-2.2-1.12-3.38-1.4-1.1-.28-2.6-.97-3.7-1.83-1.13-.85-1.74-1.86-1.7-2.44zm4.86 15.22l-1.26.43c-.5.62-1.08 1.33-1.67 1.83-.6.52-1.17.78-1.7.78l-1.16-.37c-.43-.3-.55-.55-.58-1.1-.06-1.16 1.3-3.2 3.15-3.9l.78-1.02-.53-1.17c-.62-.44-.7-.76-.7-.9l.38-.56c.33-.23.92-.45 1.76-.44l.52.02c.3.07 2.26.5 4.26.5.68-.02 1.37-.06 2.03-.23h.02c.07-.02.1-.06.18-.08.22-.06.42-.14.6-.23.3-.17.54-.32.6-.38l.03-.04.12-.08.26-.6.13-.25v-.05l-.38-.9-.4-.7.16-.3c.06-.07.17-.17.3-.27l.7-.23.4-.02c1.1.02 2.22.18 3.24.46.03 0 .05.02.08.03 1.05.3 2 .7 2.75 1.1l.03.02 1.37-.15.04-.1.37-1.22-.02-.05c-.12-.38-.2-.73-.3-1.08l-.14-.66c-.08-.44-.14-.84-.14-1.14l.08-.5.03-.04h.06l.4.04c1.1.25 2.3.7 3.28 1.26.37.2.66.44.93.7.18.14.4.28.53.45.32.38.5.75.6 1.12l.08.14-.02.2v.03l.1.6-.47-.03h-.03-.02c-.83 0-1.62.14-2.35.35-.23.07-.4.2-.63.3-.44.16-.9.3-1.3.57-.04 0-.06.06-.1.08l-.08.05c-.2.14-.33.35-.5.52-.33.3-.66.56-.9.92-.2.3-.24.65-.35 1-.12.3-.3.57-.34.92v.26c0 .07.03.12.04.2.03.38.12.75.28 1.1.05.12.06.25.12.35-.68 0-1.36-.07-2-.15-.43-.07-.87-.13-1.22-.2l-.38-.03c-.15-.02-.35-.06-.5-.07l-.48-.02-.1-.02-.03.02h-.03c-.46 0-.9.05-1.3.16-.08.02-.15.07-.24.1-.3.1-.57.22-.83.37l-.12.06c-.08.06-.12.14-.2.2-.2.16-.42.35-.58.57l-.16.2c-.05.08-.13.15-.17.23-.06.12-.06.2-.12.3-.05.13-.14.25-.18.37l-.06.3c-.14.54-.2 1-.2 1.18v.04c.04.05-.3 1.27-.9 2.1-.63.92-1.4 1.5-2.1 1.47l-.44-.06-.44-.34c-.26-.34-.5-1-.67-1.67-.15-.68-.23-1.28-.32-1.73zm7.04 16.06l.92-.94c.33-.4.62-1.06.62-1.77 0-.67-.54-1.23-1.22-1.25-1.04-.06-1.26-.34-1.5-.67l-.27-1.2v-.02c-.06-1.12 1.16-2.54 2.2-3 .98-.5 2.55-1.2 3.7-1.8.5-.24.76-.76.68-1.3-.08-.53-.5-.95-1.02-1.05-.88-.15-1.67-.5-2.16-.9l-.67-1.15.16-.6.33-.48c.03-.03.04-.06.08-.08l.13-.05c.2-.1.47-.2.93-.2h.15l.62.07c.44.04 1.02.14 1.7.23l.6.08c.64.08 1.3.14 1.97.14.47 0 .96-.14 1.44-.2.45-.06.9-.05 1.36-.2l.05-.06.78-.88-.02-.06.05-.06-.2-.4-.23-.67-.17-.1v-.03c-.17-.1-.27-.2-.4-.28-.2-.15-.37-.3-.52-.48l-.13-.14c-.15-.2-.2-.4-.22-.55l-.02-.14c0-.07.05-.15.06-.2.03-.18.07-.36.2-.57.12-.18.33-.36.54-.54.1-.1.15-.17.26-.25.27-.2.6-.33.96-.47.13-.05.23-.12.38-.16.5-.15 1.04-.24 1.6-.24h.09c.4 0 .85.1 1.27.2.33.07.64.1 1 .23l.53.2c.57.22 1.15.47 1.76.78l.28.14.82.48c2.48 1.57 4.48 2.98 6.12 4.28l.42.35c-.94.2-1.9.54-2.76 1.1-2.44 1.72-2.96 4.4-3.53 6.3-.28.97-.57 1.76-.9 2.2-.35.4-.58.6-1.36.65h-.18l-1.02-.22c-.34-.18-.8-.54-1.45-1.2l-1.57-.2c-.85.53-1.3 1.37-1.5 2.1-.3 1.08-.3 2.07-.52 2.78-.24.7-.42 1.1-1.37 1.55l-.47.08c-.5 0-1.26-.3-1.93-1.66l-1.2-.72c-.75.03-1.5.38-1.94.94-.64.83-.67 1.67-.75 2.36-.05.7-.1 1.34-.22 1.66l-.03.05c-.2.4-1.6 1.22-2.2 1.15-.8 0-1.3-.17-1.5-.33-.18-.18-.34-.35-.36-1.07.03-.9.24-1.06.74-1.57m27.87 42.7c.04-1.88.46-4.17 2-6.37 1.53-2.2 2.22-2.93 2.8-3.65.6-.75 1.03-1.5 1.7-3.13.24-.56.03-1.2-.48-1.54l-1.6.2-.54.56c-1.04 1.05-3.62 3.1-5.5 3.26l-1.35.06-1.3-.02c-1.47-.03-3.2.26-5.13 1.3.42-.68.87-1.22 1.37-1.65 1.17-1.03 2.9-1.72 5.4-3.02 2.15-1.14 3.92-1.68 5.76-3.8 1.72-2 2.23-3.7 3.53-5.56.47-.74.65-1.57.9-2.76.67-3.47 1.1-9.44 1.1-14.04 0-2.32-.1-4.23-.4-5.48-.54-2.2-.4-4.82-2.25-8.08-1.17-2.07-3.1-4.32-6.38-6.97 1.07.18 2.13.3 3.18.34.15 0 .32.05.47.05.77-.02 1.46-.08 2.1-.17h.1c.24-.04.43-.12.64-.16.45-.1.9-.17 1.28-.3l.1-.1.04-.02.57-.6v-.07l.03-.02c.2-.65.4-1.5.57-2.6.04-.26.07-.58.1-.9.08-.65.12-1.4.13-2.24h.03l.1-.03 1.07-.24c.05-.03.07-.08.12-.1l.13-.05c.2-.14.36-.34.54-.53.08-.1.18-.16.26-.26.2-.23.36-.53.52-.85v61.44h-.06c-1.63 0-3.88.2-5.88 1.36-1.34.8-2.55 1.83-3.73 3.43-.66.88-1.32 1.97-2.02 3.3M29.3 204.12h13.16v.06c0 .58.17 1.14.48 1.65-1.9 1.32-3.15 3.3-3.2 5.35-.02 1.22.6 2.54 1.82 3.24.8.48 1.64.72 2.43.7 1.37 0 2.48-.64 3.3-1.36.15-.1.2-.22.33-.33l.06.27c.2.57.45 1.18.86 1.73.4.55 1 1.06 1.82 1.27l1.08.14c.53 0 1-.12 1.46-.3-.67.9-1.15 1.97-1.2 3.23v.06c.02.54.07 1.5.66 2.5.15.26.47.46.72.7l-18.64-.02c-2.13-5.76-3.87-12.06-5.14-18.9m102.68 59.8c-8.9 7.72-17.8 12.75-24.44 15.83-3.34 1.54-6.1 2.6-8.03 3.26l-.22.07v-18.56l14.36 9.1 1.42-.07.45-1.35-4.25-14.43 12.95-9.46.46-1.4c-.17-.5-.65-.86-1.2-.86h-16.02l-6.18-18.54h57c-6.8 16.12-16.55 27.88-26.3 36.4m-34.72-134.7h-75v49.2c-.03 45.16 18.5 72.9 37.08 89.07 18.56 16.2 37 20.98 37.23 21.04l.6.16.6-.16c.2-.06 18.7-4.85 37.32-21.03 18.6-16.15 37.2-43.9 37.18-89.06v-49.2z"/><path fill="#46505b" d="M142.32 182.36c-.55 0-1.04.36-1.2.88-.13.48-.8 1.22-2 1.66-.92.35-1.9.96-2.74 1.87-.82.9-1.46 2.2-1.46 3.7 0 1.6.8 2.87 1.54 3.8.73.93 1.57 1.65 1.7 1.8l.08.18-.23.5-.18.25-.77.22-.25-.15c-.1-.16-.54-1.18-1.18-2.17-.66-1-1.62-2.14-3.14-2.65-.55-.17-1.1-.26-1.63-.26-2.25.02-3.98 1.32-4.96 2.55-.8 1-1.7 1.4-2.2 1.4h-.02c-.55 0-1.03.35-1.2.87l.5 1.4c.4.26.9 1.13.94 2.42.04 1 .3 2.12.93 3.2.6 1.05 1.6 2.06 3.05 2.53l1.53.23c1.2 0 2.27-.38 3.12-.75.83-.37 1.54-.78 1.67-.83l.14-.04.4.3.23.36v.04l.02.3-.1.52-.18.13c-.2.05-1.3.14-2.42.45-1.15.32-2.54.9-3.5 2.18-.72 1.02-1 2.16-1 3.2 0 1.5.52 2.82 1.15 3.78.5.76.73 1.5.72 2.02l-.1.5.47 1.42h1.48c.25-.2.7-.36 1.32-.36l1.27.2c.56.15 1.2.24 1.87.24 1.6 0 3.54-.54 4.8-2.28.82-1.14 1-2.43 1-3.53 0-1.4-.3-2.68-.32-2.9v-.07l.3-.33.45-.15h.05l.66.2.22.28v.06c0 .23-.33 1.52-.33 2.9 0 1.1.18 2.4 1 3.54 1.26 1.74 3.2 2.3 4.8 2.28.67 0 1.3-.1 1.86-.25l1.26-.18c.62 0 1.08.16 1.32.35h1.5l.44-1.4-.08-.5c0-.52.2-1.27.73-2.04.63-.95 1.14-2.26 1.15-3.76 0-1.05-.3-2.2-1.02-3.2-.95-1.3-2.33-1.87-3.48-2.2-1.14-.3-2.23-.4-2.42-.44l-.2-.12-.1-.5.04-.3.32-.5.32-.22.13.03c.15.07.85.48 1.68.85.85.37 1.92.75 3.13.75l1.54-.23c1.43-.47 2.44-1.48 3.05-2.54.6-1.08.88-2.2.9-3.2.06-1.3.56-2.15.97-2.4l.47-1.42c-.17-.5-.66-.87-1.2-.86h-.03c-.47.02-1.38-.4-2.15-1.4-.98-1.22-2.72-2.52-4.96-2.55-.54 0-1.1.08-1.64.25-1.52.5-2.5 1.65-3.15 2.65-.63 1-1.05 2.02-1.16 2.17l-.26.16-.55-.13-.16-.06-.48-.8.1-.17c.1-.15.94-.87 1.68-1.8.74-.92 1.52-2.2 1.53-3.8.02-1.5-.63-2.8-1.45-3.7-.82-.9-1.8-1.52-2.73-1.87-1.2-.44-1.88-1.18-2-1.66-.17-.53-.66-.88-1.2-.88zm0 3.42c.63.6 1.4 1.12 2.33 1.47.54.2 1.24.62 1.74 1.2.5.56.8 1.22.82 2.02 0 .7-.4 1.53-1 2.25-.6.74-1.2 1.25-1.62 1.7-.47.53-.72 1.22-.7 1.83.08 1.78 1.3 2.6 1.36 2.72l.05.04.05.05.13.07c.1.04.88.6 2.1.6.77.05 1.87-.38 2.42-1.38.3-.52.6-1.27 1.1-2.07.52-.78 1.17-1.43 1.84-1.64l.85-.13c1.14-.03 2.4.83 2.97 1.6.62.77 1.33 1.37 2.1 1.78-.37.8-.6 1.7-.65 2.67-.02.57-.22 1.37-.6 2.02-.38.67-.9 1.17-1.66 1.42l-.75.1c-.65 0-1.43-.23-2.1-.54-.7-.3-1.22-.62-1.68-.83l-1.14-.25c-1.2.02-1.93.73-2.35 1.25-.43.54-.62 1-.65 1.08l-.06.2c0 .06-.1.45-.1 1 0 .45.05 1.04.37 1.66.3.63.98 1.23 1.85 1.4.6.13 1.4.18 2.3.43.9.23 1.72.65 2.13 1.23.38.54.54 1.12.54 1.74 0 .88-.35 1.82-.73 2.38-.57.84-.87 1.7-1 2.58-.3-.04-.56-.1-.84-.1-.63 0-1.3.1-1.95.27l-1.17.16c-1.08 0-2.13-.35-2.77-1.25-.37-.5-.54-1.24-.53-2.05 0-1.07.24-2.02.32-2.68v-.3c.03-1.42-1.05-2.3-1.78-2.6-.76-.33-1.4-.38-1.47-.4h-.2c-.1.02-.7.07-1.47.4-.72.3-1.77 1.2-1.76 2.6l.02.3c.06.66.3 1.6.3 2.68 0 .8-.15 1.56-.52 2.06-.64.9-1.7 1.25-2.77 1.26l-1.18-.16c-.66-.18-1.32-.28-1.95-.28-.3 0-.55.07-.82.1-.15-.86-.45-1.73-1-2.57-.38-.56-.74-1.5-.73-2.38 0-.63.15-1.2.54-1.74.4-.58 1.22-1 2.12-1.24.9-.26 1.7-.3 2.3-.43.87-.18 1.56-.78 1.87-1.4.32-.63.37-1.22.37-1.68 0-.55-.1-.94-.1-1l-.06-.2c-.03-.06-.23-.53-.66-1.07-.4-.52-1.16-1.23-2.34-1.25l-1.14.25c-.47.2-.98.53-1.68.83-.68.3-1.46.55-2.1.54l-.77-.1c-.75-.26-1.27-.76-1.66-1.43-.37-.65-.57-1.45-.58-2.02-.04-1-.28-1.88-.67-2.67.78-.4 1.5-1 2.1-1.8.6-.75 1.85-1.6 3-1.58l.85.14c.67.2 1.32.85 1.82 1.63.52.8.82 1.55 1.12 2.07.54 1 1.63 1.42 2.4 1.38 1.25-.02 2.07-.6 2.16-.63l.17-.13c.05-.1 1.28-.94 1.37-2.72 0-.6-.23-1.3-.7-1.83-.42-.44-1.04-.95-1.63-1.7-.57-.72-1-1.55-.98-2.25 0-.8.32-1.46.83-2.03.5-.57 1.2-1 1.74-1.2.9-.34 1.7-.85 2.32-1.46zm.37 13.78c.87.5 1.47 1.46 1.47 2.55 0 1.63-1.3 2.93-2.93 2.93-1.08 0-2.03-.6-2.54-1.46.22 1.77 1.73 3.14 3.57 3.14 1.98 0 3.6-1.6 3.6-3.57 0-1.84-1.4-3.36-3.18-3.57z"/></g><path fill="#46505b" d="M444.77 253.46c-.38 0-.75 0-1.12.05-2.9.28-5.7 1.6-7.36 4.06-1.6 2.35-1.88 5.42-1 8.1.94 2.84 3.18 4.75 5.8 6.03 2.4 1.15 5.06 1.9 7.28 3.44 2.1 1.47 3.27 3.72 2.86 6.3-.4 2.5-2.24 4.36-4.7 4.9-2.8.62-5.86-.14-7.9-2.2-1.07-1.1-1.85-2.48-2.3-3.94-.2-.64-.55-3.97-1.97-2.95-.52.4-.43 1.17-.38 1.73.06.8.08 1.63.1 2.44.04 1.53-.07 3-.23 4.53-.06.63.13 1.83 1.07 1.5.6-.22.85-1.07 1.18-1.57 1.32.72 2.57 1.52 4 2.05 1.43.52 2.93.77 4.46.77 2.98 0 6.08-.86 8.4-2.78 2.22-1.82 3.48-4.43 3.55-7.3.07-2.66-.87-5.1-2.64-7-.3-.3-.6-.6-.92-.87-2.5-2.12-5.6-3.3-8.53-4.65-2.38-1.1-5.3-2.48-5.3-5.5 0-2.48 1.97-4.48 4.3-4.95 2.7-.52 5.55.48 7.2 2.67.93 1.24 1.27 2.7 1.86 4.1.24.55.68 1.07 1.3.72.57-.32.55-1.06.56-1.62.02-1.76-.17-3.52-.04-5.28.04-.62.16-1.34-.16-1.9-.3-.58-.92-.57-1.36-.13-.4.43-.62 1.14-.77 1.7-1.33-.68-2.53-1.48-3.97-1.94-1.07-.33-2.18-.5-3.3-.5zm83.26.5c-.97-.02-1.94.06-2.9.1-2.3.1-4.6.14-6.9.18-3.37.05-6.76.06-10.14.02-2.55-.03-5.1-.08-7.63-.17-1.2-.05-2.4-.13-3.6-.15-.8-.02-1.73.05-1.92.97-.16.82-.04 1.75-.04 2.58 0 .92-.02 1.84 0 2.77 0 .55-.13 1.65.52 1.92.5.2.84-.18.93-.6.23-1.1.27-2.24.8-3.23 1.34-2.42 5.2-2.1 7.52-2.1.76-.02 1.52-.02 2.3-.02.57 0 1.27-.06 1.82.2.62.3.67 1 .7 1.63.07 3.52.07 17.8.07 21.43 0 1.45.16 3.2-.34 4.58-.43 1.2-1.68 1.52-2.82 1.68-.56.08-1.3.04-1.75.44-.54.46-.4 1.27.23 1.55.68.3 1.47.07 2.18.02.9-.06 1.8-.1 2.7-.1 1.87-.06 3.73-.06 5.58-.02.9.03 1.78.1 2.66.17.68.07 1.72.2 2.22-.4 1.23-1.5-2.1-1.65-2.76-1.82-1.55-.38-2.15-1.32-2.25-2.87-.1-1.72-.1-3.46-.1-5.18 0-3.65.03-18.1.06-19.15.02-.83-.07-1.52.85-1.83 1.4-.47 3.02-.32 4.46-.3 1.44 0 2.92 0 4.33.32 1.36.3 2.43 1 2.93 2.36.27.74.33 1.5.47 2.28.12.7.86 1.53 1.37.57.36-.68.13-1.76.13-2.5v-2.7c0-.64.16-1.56-.2-2.13-.3-.48-.95-.52-1.47-.52zm-121.78.13c-2.7 0-5.8.23-9.3.23-.9 0-1.76 0-2.63-.04-.54-.03-1.1-.08-1.63.02-.2.04-.44.12-.6.26-.3.27-.3.9 0 1.17.3.27.82.33 1.22.38.3.04.62.08.95.14.86.17 1.7.5 2 1.43.2.6.26 1.28.26 2.37v21.66c0 1.13-.04 1.83-.23 2.43-.4 1.22-1.78 1.5-2.9 1.64-.33.04-.7.08-1 .24-.4.2-.65.72-.5 1.16.16.47.76.62 1.2.65.52.04 1.03-.05 1.54-.1l1.55-.07c1.05-.04 2.12-.06 3.18-.06 1.07 0 2.12.02 3.18.06l1.8.12c.57.04 1.22.13 1.78 0 .8-.2.94-1.4.23-1.8-.22-.14-.5-.1-.75-.16-.67-.12-1.37-.15-2-.44-.47-.2-.96-.63-1.15-1.24-.2-.6-.24-1.3-.24-2.43v-9l.68.02c.8-.05 1.57.3 2.02.97l10.53 13.2c.74.88 1.3.87 2.35.9l2.3-.05c.8 0 1.62.02 2.43.07.64.05 1.76.33 2.25-.22.44-.48 0-1.23-.47-1.48-.35-.2-.74-.33-1.12-.5-.92-.4-2.1-1-3.1-2.16l-9.98-11.7.9-.2c3.3-.72 6.38-2.57 7.3-5.98.93-3.35.25-7.44-2.76-9.48-2.04-1.38-5.18-2.04-9.3-2.03zm134.07.02c-.6.03-1.16.2-1.4.7-.64 1.23 1.33 1.5 2.04 1.7 1.33.37 2 1.4 2.62 2.56.7 1.33 1.4 2.66 2.13 3.97 1.55 2.78 3.1 5.57 4.63 8.35.34.6.67 1.2 1.04 1.8.33.5.7 1.04.76 1.65.1.9 0 1.9 0 2.8v4.56c0 1.1-.05 2.37-1.07 3.03-.58.36-1.25.48-1.9.52-.57.04-1.23.05-1.56.58-.3.5-.15 1.12.36 1.4.58.3 1.3.14 1.9.07.93-.1 1.86-.12 2.8-.14 1.92-.05 3.87-.06 5.8.04.83.04 1.66.14 2.5.16.5 0 1.2 0 1.46-.53.5-.97-.66-1.4-1.38-1.56-.94-.2-1.97-.16-2.62-1-.7-.92-.58-2.25-.58-3.34 0-2.17-.1-4.37-.04-6.53.03-.86.66-1.56 1.12-2.23.55-.8 1.06-1.63 1.57-2.45 1.03-1.66 2.05-3.33 3.04-5 1-1.68 1.95-3.36 2.93-5.03.83-1.44 1.62-2.98 3.18-3.75.58-.28 1.3-.4 1.82-.78.28-.2.46-.54.42-.84-.03-.2-.13-.36-.34-.48-.46-.27-1.13-.1-1.62-.06-.97.08-1.93.13-2.9.13-1.46 0-2.94-.25-4.38-.15-.74.06-2.16.63-1.23 1.56.67.66 1.87.34 2.62.92 1.1.85.22 2.7-.27 3.65-1.68 3.3-3.67 6.44-5.6 9.6-.48.8-.9 1.66-1.46 2.4-.86-1.3-1.48-2.85-2.2-4.25l-2.2-4.26-2.03-3.9c-.48-.88-1.22-2.17-.54-3.13.73-1.04 2.05-.4 2.95-1 .45-.3.6-.87.25-1.3-.4-.5-1.15-.4-1.72-.4-3.07 0-6.15.36-9.22.08-.43-.04-1.08-.15-1.68-.13zm-278.4.03c-.2 0-.4.04-.6.1-.62.2-.85 1.18-.24 1.56.56.37 1.3.2 1.93.38.58.15 1.12.45 1.48.92.65.84.83 1.98.83 3.56v18.86l-19.4-24.3c-.52-.67-1.08-.92-1.9-.93-.82 0-1.75.08-2.77.08-.8 0-1.6-.1-2.4-.13-.52-.04-1.06-.07-1.58-.03-.52.05-.97.23-1.1.77-.18.73.43 1.04 1.07 1.14.68.1 1.4.22 2.02.53.76.38 1.37.97 1.84 1.67l.12.17v22.4c0 1.3-.06 2.18-.27 2.88-.2.7-.67 1.23-1.32 1.58l-.8.3h-.05l-.88.17c-.67.13-1.63.62-1.12 1.44.48.75 1.9.54 2.63.5.9-.04 1.78-.1 2.67-.1 1.04 0 2.08.04 3.1.1.56.04 1.15.15 1.72.03 1-.2 1.4-1.5.23-1.84-.64-.18-1.33-.2-1.93-.5-.7-.36-1.27-.9-1.54-1.64-.28-.74-.32-1.6-.33-2.86v-20.03l20.82 25.9c.32.4.66.77 1 1.15.56.6 1.9.78 2.24-.18.12-.32.1-.67.1-1V260.7c0-1.2.05-2 .26-2.66.2-.68.68-1.16 1.32-1.47 0 0 .83-.3.87-.3.6-.1 1.82-.2 2.02-.88.1-.3.02-.62-.17-.85-.12-.13-.27-.22-.44-.25-.27-.06-.57-.07-.85-.05-.3 0-.6.03-.9.05-.86.05-1.73.08-2.6.08-1.08 0-2.14-.06-3.22-.14l-1.22-.08c-.18 0-.4-.02-.6 0zm35.94.02c-.66 0-1.36.13-1.8.15-2.7.12-5.43.12-8.15.03l-2.05-.1c-.56-.03-1.23-.1-1.76.17-.45.22-.78.75-.47 1.2.25.38.76.4 1.16.45 1 .1 2.17.12 3.03.77.77.58.85 1.64.9 2.53V281.73c0 1.45-.08 3.1-1.68 3.7-.8.3-1.58.3-2.4.44-.44.07-.8.23-1 .65-.7 1.6 1.72 1.3 2.53 1.26.94-.06 1.88-.1 2.82-.12 1.88-.05 3.76-.04 5.64.02.9.03 1.8.07 2.7.14.67.06 1.6.18 2.06-.45.34-.45.1-.94-.3-1.22-.12-.1-.27-.17-.43-.2-.8-.2-1.66-.2-2.47-.46-1.7-.55-1.82-2.22-1.82-3.75V262.77v-2.7c0-.87 0-1.9.4-2.68.57-1.07 1.8-1.1 2.83-1.27.6-.1 2.46-.36 1.83-1.4-.27-.44-.9-.56-1.57-.56zm185.82 0c-.67 0-1.37.13-1.8.15-2.72.12-5.43.12-8.15.03l-2.07-.1c-.56-.03-1.23-.1-1.76.17-.43.22-.77.75-.46 1.2.25.38.76.4 1.16.45 1.02.1 2.2.12 3.04.77.77.58.86 1.64.9 2.53V281.73c0 1.45-.07 3.1-1.68 3.7-.8.3-1.58.3-2.4.44-.43.07-.8.23-1 .65-.7 1.6 1.73 1.3 2.53 1.26.93-.06 1.87-.1 2.8-.12 1.9-.05 3.77-.04 5.65.02.9.03 1.8.07 2.7.14.67.06 1.6.18 2.06-.45.35-.45.12-.94-.27-1.22-.14-.1-.3-.17-.44-.2-.83-.2-1.68-.2-2.48-.46-1.7-.55-1.83-2.22-1.83-3.75V262.77v-2.7c0-.87 0-1.9.4-2.68.56-1.07 1.78-1.1 2.83-1.27.6-.1 2.45-.36 1.82-1.4-.28-.44-.9-.56-1.57-.56zm-280.7.02c-.93-.02-2 .16-2.42.18-1.82.05-3.63.06-5.45.03-1.14 0-2.3-.06-3.43-.13-.75-.03-2.3-.08-2 1.1.25.98 1.82.77 2.58.96 1.25.3 1.88 1.07 2.03 2.34.1.97.06 1.96.06 2.94V276.23c0 .94-.03 1.9.04 2.83.2 2.6 1.1 5.13 3.13 6.85 3.95 3.33 10.33 3.3 15.07 2.12 3.36-.83 5.93-2.9 7.13-6.2 1-2.77 1.1-5.75 1.1-8.67v-7V260.08c0-.9-.04-2.07.5-2.88.53-.8 1.4-.84 2.28-.95.63-.08 1.72-.18 1.87-.97.04-.2.02-.37-.03-.5-.28-.62-1.45-.54-2.02-.5-2.4.16-4.73.13-7.1 0-.76-.05-2.53-.13-2.14 1.14.27.88 1.54.68 2.24.82.7.14 1.4.37 1.85.96.58.8.54 1.97.54 2.88v15.07c-.03 4.26-1.22 8.68-5.66 10.17-3.76 1.26-9.66 1.18-11.92-2.65-1.33-2.26-1.23-4.94-1.23-7.47V260.07c0-1.16-.02-2.74 1.12-3.44.87-.52 3.38-.1 3.53-1.46.1-.76-.72-.97-1.66-1zm151.98.02c-.72-.05-1.6 0-1.7.77-.1.84.86 1.12 1.5 1.2.74.1 1.47.08 2.12.5 1.14.74 1.04 2.3 1.04 3.47v21.52c0 1.1.1 2.58-.85 3.35-.94.74-2.15.47-3.18.92-.64.27-.9 1.2-.3 1.65.67.5 1.77.14 2.53.1l2.7-.1c1.76-.03 3.53-.02 5.3 0 2.74 0 5.48.03 8.23.08l4.95.1c.85.03 2.5.3 3.15-.25.34-.3.32-.9.33-1.3.02-.9.05-1.8.1-2.7.04-.78.6-3.96-.62-4.24h-.18c-.77 0-.9 1.12-1.04 1.66-.2.75-.48 1.48-.92 2.1-.77 1.1-1.93 1.77-3.2 2.1-1.38.36-2.82.4-4.22.42-1.35 0-2.78.03-4.1-.28-.93-.2-1.8-.65-2.33-1.5-.6-1-.65-2.23-.67-3.37-.03-1.48-.02-2.96-.02-4.45v-4.7c2.1 0 4.76-.1 6.28 1.62.54.6.86 1.4 1.08 2.17.14.5.18 1.4.72 1.7.75.38 1.1-.64 1.13-1.2.05-1.56-.23-3.2-.28-4.77-.04-1.65.03-3.3.15-4.94.05-.7.2-1.62-.04-2.3-.2-.6-.88-.82-1.32-.32-.3.37-.36.9-.45 1.35-.1.6-.26 1.24-.52 1.8-1.13 2.4-3.97 2.65-6.3 2.82-.14 0-.3.02-.45.04-.07-2.35 0-4.7 0-7.05 0-1.16-.05-2.33 0-3.5 0-.68-.2-2.04.66-2.25.98-.25 2.16-.12 3.15-.12 1 0 2.03.02 3.04.1 1.62.1 3.38.3 4.66 1.4.74.6 1.18 1.44 1.4 2.37.14.68.3 2.43 1.46 1.93.94-.4.37-2.1.32-2.82-.08-1.2.13-2.36.1-3.55-.02-.98-.62-1.3-1.5-1.4-1.1-.13-2.18-.1-3.27-.1l-7.18.1c-2.43.05-4.85.08-7.27.04-1.2-.02-2.37-.07-3.55-.14-.17 0-.4-.03-.64-.04zm-44.16.02c-.25 0-.5 0-.74.02-.7.07-1.3.55-.92 1.3.36.74 1.7.73 2.37.86 1.95.4 2.5 2.45 3.1 4.1l5.1 13.43c.87 2.25 1.72 4.5 2.58 6.76l1.28 3.36c.4 1.03.72 2.13 1.23 3.1.4.82 1.17 1.78 2.1 1.07.64-.48 1-1.3 1.34-2 .55-1.17 1.05-2.4 1.53-3.6l.83-2.07 1.97-4.9 2.35-5.87c.7-1.7 1.37-3.4 2.05-5.1.34-.84.67-1.7 1.03-2.57.53-1.3 1.07-2.64 1.8-3.84.35-.58.75-1.15 1.3-1.52.63-.42 1.3-.45 1.98-.64.76-.22 1.4-1.3.43-1.75-.04-.03-.1-.04-.14-.06-.6-.2-1.36 0-1.96.05-.77.05-1.55.1-2.32.1-1.32.03-2.63-.02-3.94-.13-.67-.05-1.6-.3-2.2.15-.45.35-.42 1.04.07 1.34.6.35 1.37.3 2 .45 1.42.32 1.77 1.44 1.48 2.76-.3 1.37-.78 2.7-1.28 4-.43 1.16-.88 2.3-1.33 3.43l-1.75 4.43-1.8 4.54-1.5 3.68c-.15.4-.3.82-.48 1.23-.05.13-.14.58-.27.67l-.03.08-.65-1.8-1.57-4.33-1.9-5.23-1.65-4.56-.84-2.3c-.36-1.03-.75-2.1-1.1-3.16-.27-.88-.75-2.15 0-2.94.67-.7 1.7-.44 2.54-.63.8-.16 1.36-1.3.45-1.78-.36-.2-.88-.1-1.26-.1-.6.05-1.2.1-1.78.1-1.22.07-2.43.1-3.64.1-1.2.02-2.4 0-3.6-.06-.74-.03-1.5-.17-2.26-.2zm93.9 1.7c1.13 0 2.28.17 3.32.5 2.62.8 4.05 2.93 4.38 5.6.3 2.58-.02 5.67-2.38 7.22-2.1 1.37-4.85 1.42-7.26 1.42-.13 0-.42.06-.5-.04-.08-.1 0-.57 0-.7 0-.48 0-.98-.02-1.47v-2.94c0-1.96 0-3.93-.02-5.9 0-.83-.02-1.68.05-2.5.07-.8.6-1.08 1.34-1.15.37-.04.74-.05 1.1-.05z"/></svg>