<svg version="1" xmlns="http://www.w3.org/2000/svg" width="960" height="960" viewBox="0 0 720.000000 720.000000"><path d="M214.6 59c-5.4 15.8-10.3 33.2-13.6 48.4l-4 18.8v43.7c0 40 .1 44.7 2.1 56.8l2.2 13.3-3.6 8.7c-2.8 7-4.3 13.4-7.1 30.5-2 11.9-4 22.8-4.6 24.3-2 5.3-1.2 5.8 3.7 2.4l4.6-3.2-.6 6.9c-.3 3.8-2.6 14.1-5 22.9-4.1 14.6-4.7 18-6.6 40-1.2 13.2-2.1 31.2-2.1 40l.1 16 5.1-5.5c2.8-3 6.4-7.6 8.1-10.3 1.6-2.6 3.1-4.6 3.4-4.3.4.4-1.3 18.9-2.2 23.2-.5 2.1-.1 2 12.3-1.6 11.5-3.4 32.1-10.5 32.6-11.2.6-.8 2.6-11.2 2.6-13.2v-2.2l-12.7 2.2c-7.1 1.3-13.4 2.3-14 2.4-2.7.1-1.2-14.3 2.9-28.3.6-2 .9-3.9.7-4.1-.2-.2-4.4 2-9.4 5-4.9 2.9-9.1 5.1-9.3 4.9-.5-.4 1.2-18.9 3.3-36.5 1.2-9.9 2.4-14.2 8.4-30.3C221 294 225.7 288 236.1 288c5.9 0 12.5 3.4 18.7 9.8 5.4 5.5 11.2 14.5 11.2 17.4 0 2.5-3.5 4.1-5.9 2.8-4.4-2.3-4.2-.4.7 6.5 4.6 6.6 16.6 14.9 25.5 17.6 4.4 1.3 9.3 1.9 16.7 1.9h10.5l5 4.3c5.4 4.7 12.3 9.2 13 8.5.9-.8-22.2-40.5-27.3-47-6.8-8.6-23-20.2-40.2-28.8-6.9-3.4-12.7-6.4-12.9-6.6-.9-.8-6.9-23.6-7.5-28.4l-.7-5.5 7.3 7.7c6.8 7.2 8.5 8.3 24.9 16.7 9.7 5 18 9.1 18.5 9.1s.8-3.3.6-7.6c-.5-9.1.7-24.6 1.8-24.2.4.2 4.9 5.7 9.8 12.3 9.1 12.1 14.2 17.8 24.4 27 9.5 8.7 12.1 13.6 18.7 36.5 8.8 29.8 10.7 35.7 11.4 34 .3-.8 2.8-10.1 5.6-20.5 2.7-10.5 6.7-24.6 8.9-31.5 3.8-12 4.2-12.7 9.3-17.3 3-2.7 7.9-6.6 10.9-8.7 3-2.1 10.4-9.2 16.4-15.9 6-6.6 11.2-12.1 11.5-12.1.3 0 1.6 1.8 2.9 4.1 2.2 3.8 2.3 4.2.8 8.7-1.9 6.1-2.7 14.2-1.3 14.2 1.5 0 13.8-4.6 21-7.9 4.6-2 8.8-5 13.4-9.6 6.4-6.3 12.8-10.4 14.1-9 1.3 1.3.2 7.5-3 17l-3.3 10-13.5 7c-17.6 9.1-32.4 19.8-40.1 28.9-4.2 4.9-9.3 13.2-16.6 26.9-5.7 10.9-10.3 20-10.1 20.2.2.2 5.9-3.1 12.7-7.2 12-7.4 12.4-7.5 16.1-6.4 5.1 1.5 8.4 1.4 16.5-.8 10.2-2.7 13.5-4.4 18.1-9.3 3.3-3.4 8.4-13.3 8.4-16.3 0-.3-1.4-.5-3.1-.5-3.1 0-3.1 0-2.4-4.2 1-5.5 5.2-10.7 14.9-18.1 6.5-4.9 8.7-6.1 12.5-6.4 6-.5 9 1.4 16.4 10.5 5.5 6.7 6.2 8 10.3 21.9 2.5 8.2 4.7 16.4 4.9 18.3.2 1.9.9 7.5 1.5 12.5.6 4.9 1.2 10.6 1.5 12.7 1 8.8 1.7 21.8 1.1 21.8-.4 0-4.3-1.8-8.7-4.1-4.5-2.2-8.3-3.8-8.6-3.5-.3.2.4 4.6 1.6 9.6 2 8.6 2.9 24 1.4 24-.4 0-5.6-1.5-11.7-3.4-13.2-4.1-17.6-5-17.6-3.9 0 .4 1 4 2.1 8l2.2 7.2 22.2 7.4 22.2 7.4-2.3-10.6c-1.3-5.8-2.4-11-2.4-11.6 0-.5 4.1 3.1 9 8 5 4.9 9 8.3 9 7.5.1-.8.9-8.3 1.9-16.5l1.9-15-4-32c-3.4-27.6-4.6-34.2-8.4-47.9-2.5-8.7-4.3-16.1-4-16.3.2-.2 3.1.7 6.5 2.1l6.1 2.5v-31.4l-7.1-17.8-7.1-17.7 3-22.8c3-22.5 3.1-22.9 2.1-47.7-.5-13.8-2.1-35.1-3.5-47.5l-2.5-22.5-7-16c-3.9-8.8-7.4-16.3-7.8-16.7-.3-.4-4.1 3.8-8.4 9.3-10.9 14.3-38.1 39.7-55.6 51.9-10.2 7-17.2 13-27.9 23.7-7.9 7.9-14.8 14.3-15.3 14.3-1.4 0-1.1-1.6 1.7-11.9 1.4-5.1 2.2-9.6 1.9-10-.4-.3-3.6 2.5-7.1 6.3-7.7 8.2-14.8 21.7-17.3 32.7-1.9 8.3-4.4 10.5-5.6 4.9-1.3-5.8 1.7-38.8 4.1-44.4.5-1.4-1.3-.4-5.7 2.9-11.6 8.8-20.9 17.6-27.7 26.3-9.3 11.9-14.2 17.2-15.9 17.2-1.1 0-1.3-1.5-.8-7.8 1-12.2 2.1-15.3 9.3-24.4 5.4-6.8 6-7.9 3.1-5.7-7.4 5.5-20 14.1-20.3 13.8-.1-.2-2.6-4.3-5.6-9.1-4.8-8-6.3-9.5-17.4-18C257 107 229.7 81.3 220.3 66c-3.2-5.2-5.4-7.9-5.7-7zm21.9 62.5c6 6.9 18 15.5 33.9 24.6 4.2 2.4 7.6 4.6 7.6 4.9 0 .4-6.1 3.1-13.5 6.1-7.4 3-13.5 5.6-13.5 5.9 0 .3 4.1 2.3 9 4.5 5 2.2 9 4.2 9 4.5 0 .3-2.3 1.8-5.1 3.3-2.8 1.7-14.7 12.2-27.7 24.7-12.5 12-22.8 21.7-23 21.6-.1-.2 3.5-8.4 8.1-18.3 7.8-16.8 8.4-18.4 7.9-23.1-.4-4.8-.3-5.1 2.2-5.8 1.4-.3 2.6-.8 2.6-1.1 0-.3-1.6-3-3.5-6.1-3.5-5.8-7-15.6-6.1-17.1.3-.5 2-1.1 3.7-1.5l3.2-.6-5.5-5.8c-6-6.3-9.7-14.2-11.9-25.1-1.1-5.6-1-7.6.6-15.5 1-5 2.3-9.6 2.9-10.3.8-.9 2.7 2 7.1 11.1 4.2 8.7 7.8 14.3 12 19.1zm268-19.6c1.6 7.3 1.7 9.2.6 14.5-2.4 11.5-6.6 20.5-12.3 26.3l-5.2 5.3 3.2.6c1.8.4 3.5 1 3.8 1.5.9 1.5-2.6 11.3-6.1 17.1-1.9 3.1-3.5 5.8-3.5 6.1 0 .3 1.2.8 2.6 1.1 2.5.7 2.6.9 2.1 5.6-.6 4.6 0 6.1 7.9 23.1 4.6 10 8.3 18.3 8.2 18.4-.2.2-10.9-9.9-23.9-22.4-13-12.4-25.3-23.5-27.3-24.6-2-1.1-3.6-2.2-3.6-2.5 0-.3 4.1-2.3 9-4.5 5-2.2 9-4.2 9-4.5 0-.3-6.1-2.9-13.5-5.9-7.4-3-13.5-5.7-13.5-6.1 0-.3 3.4-2.5 7.6-4.9 27.6-15.7 36.9-24.6 46-44 6.4-13.6 6.1-13.6 8.9-.2zM285.9 313.7c4 3.5 4.3 4.1 3.2 6.1-1.5 2.8.1 6.6 4.1 9.6l2.8 2 2.9-2.1 2.9-2.2 2.3 2.5c1.2 1.3 2.1 2.6 1.8 2.8-.2.2-2.6 1.1-5.2 2.1-4.1 1.6-5.3 1.6-9 .5-2.3-.7-5.4-2.1-6.9-3.2-2.6-1.8-2.8-2.5-2.8-8.4 0-4.5-.6-7.7-2-10.4-1.1-2.2-2-4.2-2-4.5 0-1 3.3 1.2 7.9 5.2zm152.6 6.9c-.5 4.3-1.3 5.8-5 9.4-3.7 3.6-5.1 4.4-9.4 4.8-4.8.4-14.1-1.5-14.1-2.9 0-.4 1.8-2.1 4-3.9l3.9-3.1 2.9 2.1c3.4 2.5 7.1 1.6 9.8-2.5 1.5-2.3 1.6-3.1.5-6.2-.7-1.9-1.1-3.5-.9-3.7.1-.1 2.1-1.7 4.3-3.6l4-3.4.3 4c.2 2.1.1 6.2-.3 9zM173 219.4c-2.5 1.8-11.5 8.2-20 14.2-11.1 7.8-18.8 14.2-27.2 22.6l-11.6 11.7 8.3 32.8c4.6 18 9.5 36.2 11 40.3 1.5 4.1 9.5 22.6 17.9 41l15.1 33.5.5-32.5c.5-30 .7-32.9 2.7-38.1l2.1-5.6-6 1.9c-3.4 1-6.3 1.7-6.5 1.5-.2-.3 1.6-7.8 4.1-16.8 2.5-9 6.1-25.2 8.1-35.9s4.8-24.9 6.3-31.5c3.5-16 3.8-42.6.4-42.5-.4 0-2.7 1.6-5.2 3.4zM542.3 224.7c-.5 1.6-.8 8.4-.8 15.3.1 9.7.7 15.2 2.7 24.5 1.5 6.6 4.3 20.8 6.3 31.5s5.6 26.9 8.1 35.9 4.3 16.5 4.1 16.8c-.2.2-3.1-.5-6.5-1.5l-6-1.9 2.1 5.6c2 5.2 2.2 8.1 2.7 38.1l.5 32.5 15.1-33.5c8.4-18.4 16.4-36.9 17.9-41 1.5-4.1 6.4-22.2 11-40.2l8.3-32.8-10.1-10.3c-5.6-5.7-12.2-12-14.7-13.9-5.9-4.7-38.7-27.8-39.4-27.8-.3 0-.9 1.2-1.3 2.7z"/><path d="M467.4 338.9c-8.2 7.9-10.1 9.2-18 12.3-4.9 2-11.3 4.1-14.1 4.9-2.9.7-5.3 1.6-5.3 2 0 2.6 15.1 3.6 23 1.6 1.4-.4 3.7-.9 5.2-1.2 3-.7 10.6-8.4 13.4-13.6 1.4-2.6 5.6-15.1 5-14.9-.1.1-4.2 4-9.2 8.9zM244 331.4c0 6 6 17.5 12.1 23.3 4 3.7 12.8 6.3 21.6 6.3 5.9 0 12.3-1.5 12.3-2.9 0-.4-2.4-1.3-5.2-2-2.9-.8-9.3-2.9-14.2-4.9-7.7-3.1-9.9-4.5-17.7-12-4.9-4.6-8.9-8.1-8.9-7.8zM347.3 382.4c-5.7 1.8-12.9 6.5-17.8 11.6l-3.9 4 2.9-.5c29.8-5 40.1-5.4 55.4-1.9 3.5.8 6.6 1.3 6.8 1.1.9-.9-11.2-11-15.4-12.9-6.1-2.8-21.6-3.5-28-1.4zM300 416.5c-26.2 4.9-36.9 7.5-91.5 22.5-13.5 3.6-30.6 9.9-32.8 12-1.6 1.4 1.2 4.8 4.8 6 4.4 1.5 5.9 4.2 13.1 24.4 3 8.3 5.7 15.7 6 16.5.4 1.1 1.1.9 3-1.2 1.6-1.7 3.5-2.7 5.4-2.7 6.5 0 7.3.9 18 21.7 5.6 10.9 13.8 26.2 18.3 34l8.2 14.2.5-5.2c.3-3.4 1.3-6.3 2.7-8.1 2-2.5 2.8-2.8 6.4-2.3 2.7.4 4.6 1.3 5.7 2.8 7.9 11.3 26.8 31.5 43.2 46.2 13.2 11.8 42.9 34.7 45.1 34.7 1.4 0 19.3-14 40.9-32.1 15.9-13.3 49-45.6 49-47.9 0-1 4-3.3 7.7-4.4 3.2-1 5.3 3.6 5.3 11.6v6.3l6.6-11.5c3.6-6.3 9.3-16.9 12.6-23.5 3.4-6.7 9.2-16 13.2-21.2 6.8-8.8 7.3-9.2 11-9.3 2.7 0 4.7.7 6.2 2.1l2.3 2.1 1-4.1c.6-2.3 1.5-5.8 2.1-8 .5-2.1 3-8.4 5.4-14 5.3-11.9 13.3-22 17.7-22.1 2.3 0 5.9-2.6 5.9-4.3 0-.4-5-3.2-11-6.2-36.4-18.3-123.6-34.7-182.9-34.4-20.5.1-20.8.1-49.1 5.4zm63.3 40.2c4.7 14.1 10.7 33.9 10.7 35.4 0 .5-2.3.9-5.1.9-4.7 0-5.6-.4-12.2-5.8-4-3.2-8.8-7-10.7-8.5l-3.5-2.7-2.1 8.3c-1.9 7.6-2.2 8.2-5 8.8-5.4 1.2-12.4 1-12.4-.4 0-1.6 7.3-29.3 9.8-37.3l1.9-6.2-3.5-1.6c-2.1-1-3.1-2.1-2.6-2.6s5.9-1.1 11.9-1.3c6.1-.1 12.6-.4 14.6-.5l3.6-.2 4.6 13.7zm29.7-11.2c9.3.8 32.5 4.6 34 5.5.8.5 1 2.1.5 5.2-1 6.9-1.1 7-9.5 5.4-4.1-.8-7.5-1.4-7.6-1.3-.1.1-1.3 8.1-2.8 17.7-1.6 9.6-2.9 17.8-3.1 18.1-.2.3-3.7 0-7.7-.6-6.9-1-7.3-1.3-7.1-3.6.1-1.3.9-9.3 1.8-17.7 1-8.4 1.4-15.6 1.1-15.9-.3-.3-3.7-.8-7.6-1.1l-7-.5v-3.2c0-1.8.3-4.7.6-6.4.6-2.9.9-3.1 4.3-2.6 2 .2 6.5.7 10.1 1zm-77 .7c0 .7-.9 8.3-1.9 16.8-1.1 8.5-2.2 19.4-2.6 24.1l-.7 8.6-6.7 1.1c-3.6.6-8 1.4-9.7 1.8l-3.1.6-4.9-11.3-4.9-11.3-.3 12.5-.3 12.4-9.4 2.6-9.5 2.6-3.1-5.6c-1.8-3.1-7-11.8-11.7-19.3-7.6-12.1-8.9-13.8-11.9-14.5-1.9-.4-3.5-1.2-3.6-1.8-.2-.9 18.3-7.4 21.4-7.5 1 0 3.7 4.6 8.2 14.2l6.7 14.3-.7-16.1c-.7-18.5-1.9-16.3 10.2-18.8 3.9-.8 7.3-1.2 7.7-.8.4.4 3.4 7 6.7 14.7l6 14 .3-16 .3-16 8-1.1c4.4-.6 8.3-1.2 8.8-1.3.4 0 .7.5.7 1.1zm128 8.4c5.8 1.4 16 4.3 22.7 6.5l12.1 4-1.9 5.8-2 5.9-7.1-2.4c-4-1.3-7.4-2.4-7.8-2.4-.4 0-3.1 7.9-6 17.5-3.3 10.9-5.8 17.4-6.5 17.1-.6-.2-3.9-1.2-7.3-2.1-3.4-1-6.2-2.3-6.2-2.9 0-.6 2-8.6 4.4-17.8l4.4-16.8-3.7-1c-2-.6-5.3-1.3-7.3-1.6-4.2-.7-4.3-1-2.7-8.2.8-3.9 1.4-4.9 2.7-4.6.9.2 6.4 1.5 12.2 3zm-150.5 64.9c0 3 0 3-6.2 3.3-4.7.2-6.3.7-6.3 1.7 0 1.1 1.3 1.5 4.7 1.5h4.6l-2.3 2.5c-1.3 1.4-3.4 2.5-4.7 2.5-1.6 0-2.3.6-2.3 2 0 1.8.7 2 6.5 2h6.5v6h-21v-10.9c0-6.3-.4-11.2-1-11.6-3-1.9-.1-2.5 10.3-2.3l11.2.3v3zm21.9-1.9c.9.8 1.6 2.9 1.6 4.5 0 2.6-.3 2.9-3.4 2.9-2.1 0-3.6-.6-4-1.5-.7-1.9-5.6-2-5.6-.1 0 .9 1.8 1.6 5.5 2.1 6.7.8 9.1 3.4 8.2 9.1-1 5.8-2 6.4-11.1 6.4-9.2 0-10.6-.8-10.6-5.7 0-3.1.2-3.3 3.5-3.3 2.4 0 3.5.5 3.5 1.5s1.1 1.5 3.5 1.5c2.3 0 3.5-.5 3.5-1.4 0-.9-1.9-1.6-6-2-6.7-.8-8-2.1-8-8 0-5.8 2.6-7.6 10.9-7.6 5 0 7.4.4 8.5 1.6zm24.2-.8c2 1.3 3.4 5 3.4 8.7 0 5.3-3.6 8.5-9.5 8.5-4.5 0-4.5 0-4.5 3.5 0 3.4-.1 3.5-4 3.5h-4v-10.9c0-6.3-.4-11.2-1-11.6-.5-.3-1-1-1-1.6 0-1.1 19-1.2 20.6-.1zM365 518c2.6 2.6 3.3 5.9 2.8 13-.6 8.6-2.2 10-11.3 10-9.9 0-11-1.3-11-12.7 0-7.7.2-8.7 2.4-10.4 3.4-2.7 14.3-2.7 17.1.1zm26-1c3 1.6 3.7 7.6 1.2 10.9l-2 2.8 3.9 4.9 3.9 4.9-4.7.3c-4.2.3-4.9 0-7.2-3-1.4-1.8-3.6-4.4-4.8-5.8l-2.2-2.5-.1 5.7v5.8h-8v-10.9c0-6.3-.4-11.2-1-11.6-.5-.3-1-1-1-1.6 0-1.2 19.6-1.2 22 .1zm27 2.5c0 3.3-.2 3.5-3.5 3.5H411v18h-8v-18h-3.5c-3.3 0-3.5-.2-3.5-3.5V516h22v3.5zm21.2-1.8c1 .9 1.8 2.9 1.8 4.5 0 2.5-.3 2.8-3.4 2.8-2.2 0-3.6-.6-4-1.6-.4-1-1.5-1.4-3.1-1.2-4.3.5-2.8 2.3 2.7 3.2 6.9 1.1 7.8 1.9 7.8 7.3 0 7.6-.8 8.3-10.4 8.3-9.1 0-10.6-.7-10.9-5.7-.2-2.5.2-2.9 3.3-3.4 1.9-.4 2.6-.7 1.5-.8-3.3-.2-4.5-2.1-4.5-7 0-6.7 1.8-8.1 10.3-8.1 5.2 0 7.5.4 8.9 1.7z"/><path d="M345.6 464.5c-1.1 3.9-2.1 7.6-2.4 8.2-.3.9.9 1.3 4.2 1.3 2.5 0 4.6-.3 4.6-.8 0-.4-1-4.1-2.3-8.2l-2.3-7.5-1.8 7zM329 524.4c0 2.1.5 2.6 2.6 2.6s2.5-.4 2.2-2.3c-.2-1.4-1.1-2.3-2.5-2.5-1.9-.3-2.3.1-2.3 2.2zM353.7 523.7c-.9.8-.9 7.6-.1 9.7.3.9 1.6 1.6 2.9 1.6 2.5 0 3.5-1.7 3.5-6 0-1.6-.3-3.5-.6-4.4-.6-1.6-4.5-2.2-5.7-.9zM379 525c0 2.7.3 3 3 3 2.5 0 3-.4 3-2.4 0-2.3-1.6-3.6-4.6-3.6-.9 0-1.4 1.1-1.4 3zM427 533.5c0 1 1.1 1.5 3.5 1.5s3.5-.5 3.5-1.5-1.1-1.5-3.5-1.5-3.5.5-3.5 1.5z"/></svg>